<svg xmlns="http://www.w3.org/2000/svg" viewBox="0 0 1000 1000" enable-background="new 0 0 1000 1000"><style>.st1{fill:#fdcf67}.st1,.st3,.st5{fill-rule:evenodd;clip-rule:evenodd}.st3{fill:#fff}.st5{fill:#1f1f1f}</style><path class="st1" d="M358 335l2-1h2c-4 7-4 7-8 6l4-5m-2-4l-2 2 2-2m124-12v1l-1-1h1m130 43h4v1h-4v-1m-287 21l6-4v-2l1-1v-1l1 1 11-6c5-3 10-7 17-5h2l18-1h28l25-2h43l47-1c13 0 26 0 39 2l40 4 27 1-9-5c-1-3-5-5-11-5v3l-14-3-13-2v-3l-2-4c-2 1-6-1-7 3l-4-4-6 1-1-1 3-2c-2-4-5-5-8-3l-5-7c-1-4-3-5-7-5l-7-2v-3l-16-4-1 2-10 1-1-2h-7c-5 1-10-2-14-3-6-2-12-2-17-2-1 4 2 5 4 7l2 2c-9-3-11-4-8-12l-7-6-1-3-3 4h-4c1-4-1-6-4-7l-9-2 1 4h-2l-4-2-4-1c-5-2-9-2-13 0l-1-1-2-2c-2 2-3 3-5 3-5-5-6-5-7-1l-7-5-12-1-6-1h-2c-5-1-10-3-16 0h-2c-3-3-4 0-6 1-3 0-2 1-6 3l-7 1-3 5-6-2-1 5-2 4 3 2c-1 5 3 1 4 3l1 4-4 1 3 4 1 1 4 4 4 3c-1 1-2 3-3 2-3-1-7 1-11-2-3-2-7-2-11-3l-5-1-2 18v11l1 7v2l2 7 2 3 6 6M352 540l-19 13c-4 3-8 3-11-1l-3-2 3 19 5 10 5 12 5-8c6-7 11-13 12-22l3-21"/><g transform="translate(473 587)"><defs><filter id="empty-state-mask-filter" filterUnits="userSpaceOnUse" x="-43.6" y="44.4" width="287.9" height="158.6"><feColorMatrix values="1 0 0 0 0 0 1 0 0 0 0 0 1 0 0 0 0 0 1 0"/></filter></defs><mask maskUnits="userSpaceOnUse" x="-43.6" y="44.4" width="287.9" height="158.6" id="empty-state-mask-2_1_"><g filter="url(#empty-state-mask-filter)"><path class="st3" d="M-44 44h288v159H-44z"/></g></mask><path d="M-11 148l-6 4-9 2-3 6-3-4-3 7-1-1c0-3 4-7-3-10l11-5a362 362 0 0111 0v-1h-1v-2h2l4 4 1-2-1 2zm-17 24l-4-2-3 1-1-4c2-1 6 0 4-5l3-1 2 6-2 5zm7-34v6h1-1l-3-1 3-5zm262-18c1-2 3-4 0-7v-3c4-5 2-9-1-14l-3 2 1-4 2-2 3-1-4-5-7-7c-4-4 0-13-7-18l1-9-4-1-1 1v-1l3-3-6-4 4 15 5 20 3 9c0 8 1 10-8 11l-38 6-50 4-21 2-33 6-26 2-28 3-28 1 3 10-6-1 1-8h-29l1 8-8 2v7l5-5 2 2 1-3 3-3 1 1 2 7c0 2 0 5-4 4-3-1-7-1-8 4l-3 4c-2 2-4 4-1 7 2 2 2 5 3 8-3 5 1 9 6 11 3 1 3 1 1 3l-8-5v6c4 2 3 8 5 11l4 5c3 3 8 2 11 3 5 3 10 1 15 0l26-5 22-2h8c6-1 12-1 16-4 8-6 16-6 23-8l51-13 25-6 14-1 5-4c4-1 9-3 14-3s9-2 11-5c5-8 12-10 18-15 7-2 11-7 15-12 2-1 1-3-2-3z" mask="url(#empty-state-mask-2_1_)" fill-rule="evenodd" clip-rule="evenodd" fill="#fdcf67"/></g><path class="st1" d="M739 491l-2 1c-5 2-6 2-5-2l1-3-4-5-1 1v-1l3-5v-2c2-7-1-12-8-12l-1-7h-1 6l-3-3c-2-2-6-3-2-8l-3-4-7-2v-1l3-1c-3-4-6-8-12-7l2-2-2-6-3-5 2 13 1 8 2 37c0 6 1 13-1 20-1 10-4 21-7 31l-1 4 8-2 9-6c4 3 5 2 6-3 1-2 4-5 6-5 4 1 6-1 8-4l3-12c3 1 5 2 6-1l-3-6M687 611l1-2-6-5-1 2 6 5z"/><path class="st1" d="M729 477l-3 4h1l2-4M696 413l2 3c2-2 0-3-2-3M734 467l-1-3-1 1 1 2h1M690 613h1v-1l-1 1M735 470v-1 1"/><path class="st1" d="M447 600c7-11 17-20 27-28l11-7 12-4h8c5 1 11 2 16 5l12 9c7 6 10 15 11 24 1 6 3 11 3 17l1 20 2 11 1 7 35 1 5 1 3 6-6 1-39-1c-4 0-6-3-6-7l-3-25-3-31c-2-11-7-19-17-24l-13-6c-10-4-18 0-26 6l-27 23-1 1-1 2h-1l-4 9c-2-4-2-7 0-10m192-56l-1-1v-1l3 1-2 1m-25 31l1 5h-7c1-5 3-5 6-5m-177 57l16 7 2 2 11 5c3-2 5 0 7 3l3-1 3-2 3-3 5-5 5-2c2 1 3 3 3 5l2 13 5 2-5-2v6l4 37 18-2 19-1 43-5 35-3 15 1 3-2 2-1-3-8-5-7-2-4-1-4 5-7 5-3 3-2 26-19h3c1 2 2 5-1 6l-13 9a273 273 0 00-6 5c-5 3-7 9-14 11-1 0-2 2 0 5 3 3 5 8 7 12 1 3 1 7 6 7h9l10-3 23-2c7-1 8-2 5-10l-4-13c-3-12-10-22-15-33-3-6-7-11-7-18l-3-15h-1 1v-6l-9-4h-2l-3 1 3-1-14-6-3 1c-2 0-4 3-5-1l-7-1v5-5l-2-2-6 4-2-1-2-4-10 5-11 13c-1 2 1 5 2 7l11 19 1 4c-4 2-7 1-9-3-2-6-6-11-9-17l-2-3-1-2c-3-3-1-6 1-9l1-2 4-6 2-2 2-3c-4-3-7-4-11 0 1-5 4-9 0-12l-8 3-3-6-4 5 4-5c4 0 7-3 12-1l1-1-1 2v1l13-6 4-1 10 1 4-3v1-1l2-3h1l8-8 4-3c4-7 3-7-2-12l-24-25a2882 2882 0 00-18-20h-4l-5 8-5-2 3-4 7-2h4l-30-32-20-23-6-13c2-3 3-6 8-5h9l5 1 10 1 5-1 24 3c7 1 9-2 8-9l1-7c6 3 8 8 7 12-1 5-4 9-9 10l-28-1-31-2-1 1 13 19 28 27 27 31 15 15 14 13c7 6 6 15 0 21l-8 9c2 2 4 3 6 1h1c6 1 9-7 14-8h9c-1-5 4-2 6-3l18-4c12-20 12-42 12-65l-13 1-29 1-18 2-1-2 25-55c6 4 7 6 3 11-5 7-7 16-11 24l-6 13h4l4 1 7-1h9l12-1 10-1 4-2v-11c0-10-2-20-6-30v-2l-3-7-1-4-1-1v-3c-5-2-5-6-5-10l-2-3c-4 0-3-3-4-5-4 1-8-3-12 0-2-2-3-4-3-7l-6-1-34-2-28-3-38-1-38-2h-65c-3 1-4 1-3 4l2 11v2c0 3 2 6 1 7-3 3-2 6-2 9l-1 2 1 5 1 2-1 11 1 1 5 1 27 9 3-1-1-1h1v1c1 4 4 4 8 3l6-1 2 2c-1 5 4 5 7 7l5 3-1 1-9 1 1 2 1 4-6 18-1 3-1 3v2l-2 3v3l-4 11-1 2-1 2-2 3-2 10v2l-1 6c-2 3-5 3-6 0-2-3-2-7 0-11l1-2 2-10 2-5 1-3 1-5 4-6v-4l2-5 1-1 4-8v-3l1-3c-4 2-9 2-13 5-11 7-23 11-35 15-3 2-6 2-7-2l-3-4 1-8-4-2-6 1c-3 0-6-4-9 1l-3-2-1 3h-13l-6-2v-2l-25 10v8l-5 37-3 21-2 22-3 12-10 19c8 0 13 5 19 10l8 4 9 6 8 3v-44l1-13 3-6c5 3 4 8 4 12v46l2 11 15 7 5 3 17 6"/><path class="st1" d="M366 394l65 20c1 4 4 5 8 5l1-15v-6l-4-19-1-4-2-4-81 1 10 14 4 8M457 699h9l20-1 2-1 2 1c1-2 3-3 2-4l-2-25c-6-3-9 0-13 3-1 2-2 3-5 2-3-3-6-7-11-7l-8 4h2c1 5 4 4 7 1l1 6 8-4-8 4-5 1c-3-2-9 0-9-6l-11 6 1 6 3-5 1 3-6 7h2l1 6 1 2-1 2 17-1M445 451l-1 1v1l-1 2v9l2 3 9-3 1-1 7-3 3-1 3-2 7-2 2-1v-1c-3-2-6-4-10-1l-7 6-3-2v1l-9 1-1-1 4-3-6-3M334 522l10 5-2 3v1-1a2005 2005 0 01-16 3l8-11m11-14v1-1m-23 33l2 1 1 2 10-2c6-2 9-9 11-14l2-2 8-19 4-21v-15l-4 2-7 4-1 3-1 1-1 4-2 7v3l-5 11 1 1-3 2h-1v1h-1l-7 7-10 11-3 1 5 10 2 2M345 386v-1l4-3v-6l-1-1c-2 1-5 1-7 3l-11 8 9 3 6-3M352 397l1-1-1-3h-1l1 4"/><path class="st1" d="M339 507l-1 1h-1v1l3-2h-1zM424 456l1 5h7c0-6-3-8-8-5M326 487l4 2 2 3 3 8 3-6v-6l-2-1-7-5-1-1 1 1-3 5M632 575l-2 2 2-1v-1"/><path class="st5" d="M311 455h-1l1 1v-8c1-1-2-1-2-2l3-11 3-1 1-4v-5c0-2 1-1 2-3 0-1-2-1-1-2l1-3v-2l2-2 3-5 4-4v-3l1 1 1-4v-1l1 1 7-9 5-3 1-1 2-3 2-4-2-1-5 2-5 8-3 3h-5v1l-5 9c0 1 0 0 0 0l-2 2 1 1-2 4-1 1 1 2-4 1v4l-1 4-3 14-1 1 2 1-1 1v2h2l-1 2v1l-1 3c-1 2-2 1-2 3l2 1-1 1-2 2 3 3zm29-6v7l-3 1c0 5 1 9 3 13l2-1-3-2 1 1 2-2v-13l3-1c0-3-2-3-2-5l1-3-1-6 1-7-1-1-2 6-1 2v11zm-14 91v1l-1 2 1 1 1-1c2 0 4-3 7-3 5-3 7-7 9-12h3l1-3 2-5 7-13c2-7 1-14 2-22v-14l2-3-1-5v-25c-1-3 1-3 1-6l-5-13-1-2-1-4-1-2-1-2-1-2-4-6s2-1 1-2l-2-2h-3l1 2-1 1-5 5-1 1 1 1h-1l-3 1c-3 5-1 6-4 10l-1 1v2l-1 3c-1 0-2-4-3-3l2 1c0 2-1 1-2 3l-2 9 1 1h-1l1 2h-1v1l-1 3c-1 1 1 3 1 4l-2 9v4l-1 7 1 3c0 2-2 2-1 4l-1 1 1 10 1 4v3l2 3 3 5 3 4 1-1c1 0-1 0 0 0h4c2-2 0-4 1-6l2-1v-5l2-4c1-4 2-4 1-8h-3c-5-2-7-8-7-15l-1-8v-5l1-11 1-2c2-6 3-12 7-17 2-2 5-1 7-1s3 1 4 3l2 1c1 1 2 1 2 3v6l1 2h1l-2 3 1 6 1 8-1 1v-3l-1 1v2l1-1-2 2 2 3-1 2-1 1 2 3h-2c-1 2 2 2 1 3v2c-1 2-2 2-2 5s2 3 1 6c0 2 0 2-2 3l-1 1-2 4-2 7c0 1 2 1 2 3l-4 11c0 1 2 1 1 2-1 2-2 2-4 2l-1-2v1h-1v1l-1 2h-2l-5-2-4-2-3 2-3-4-1-3-1-4c-4-3-4-7-4-10l-4-5-1-3 2-1v-2l-2-4 1-1 1-2-1-2 1-3c1-1-1-1-1-3v-7 1l-1 3v2l-1 10 1 2 1 4h-2v15l2 2v2l-2 8 1 1h1l1 1-2 1 1 2c0 2 2 3 3 5l3 10 3 3c3 5 1 7 4 11l1 2 3-1zm23 152l13 1c4 0 9 3 13 4l13 1 35 2 18-3h5l11 2h5l3 1 1-2 14-1h5l1 1 1-2h3v-20c-1-3-2-2-2-5l-2-18c-1-2-1 0-2 1l-11 8-7 5-4 3-11 7c-5 3-6 1-11 4l-4 1-6 4c-2 1-4 4-6 4l-8-4a88 88 0 01-18-34l-6-18c-1-3-3-5-3-8v-1c-1-1 1-1 1-1l-1-2-2-10v-12l-1-32c0-5 3-9 4-14l2-4 1-2h1c5 3 4 7 4 11l3 1c0 3-2 3-2 5v17l1 25 2 7v9l2 11 4 18 4 5c2 7 5 14 12 21l1 1h1l28-18 4-2 5-3 9-7 3-1 1-3 4-3h2c1-1 1-4 3-5h6c2 1 5 3 5 5l1 9v4l2 6c2 17 0 18 2 35l4-1a248 248 0 0122-2l10 1 30-3 13-3c3 0 6 2 10 1l25-2 1-1a69 69 0 0113 1c2-1 1-2 2-3h1c-1-3 1-4-1-7l-5-6-3-1-1-3c-1-2 1-3 1-6v1l2-2 2-6 5-1v-3h3l1-1v-1 1c3-2 1-4 4-6l21-14h2c1 0 3 0 4 2 1 1 2 3 1 5l-4 2-12 8-2 2-1 2-2 3-5 3c-2 3-5 7-9 9l1-1-2 2c3 3 6 7 8 12v3c1 2 2 4 4 4h1l2-3 7 1v2l5-1c1 0 2-4 4-4l20-2h9c1-1 0-5-1-7 0-2-3-3-4-4l-3-8c-1-9-4-17-8-25l-4-9-4-4c-2-4-5-8-6-14v-15l-1-6v-5l4-10 8-24 3-9 3-3c11-19 13-40 13-62l-1-1-3 1h-37c-10 0-10 4-20 3-2 0-2-2-1-4 12-29 12-29 27-57h1c6 4 8 8 3 14l-7 17-5 6-4 9 1 3h1l4-1 6 2 4-1h5l12-2c1-1 2 1 3 1l7-1 3-1 1-7-1-4c0-10-1-20-5-30 0-1-2-1-1-2l-5-10v-2s0 1 0 0v-1h-1c-4-2-3-7-3-11h-3v-2h1c-3 0-4-3-4-4l-2-1-1-1c-1-1 1-1 2-1 0-1 2-3 1-4l-3-2c-2-1-4 1-6 1l-4-2-2 3-2-2c-1-1-3 1-4 1l-16-2-18-1h-11l-17-4-20 2-18-1-37-1-30-2-35 2c-2 0-1-1-1-1v1l2 8 1 3h-3c0 2 3 1 3 3l-1 1c1 3 0 4-1 5-2 2-1 5-1 6l-1 3 2 2c0 3-2 3-1 5l1 2 1 10 1 1c0 2-3 2-3 4v2c-1 4 1 4 1 8 0 2-3 2-3 4l2 1-2 11 2 1-1 2v-1h-1l-1 2 2 2-1 7-1 2 1-2c4-1 5 0 9-2l1 1c2-1 1-3 3-3l4-2 3-1 3-3 3-1s-1 0 0 0l4-2 1 2v1-1h1l4-3-1-2c1-1 2 1 3 1h1v-2l4-1c6-1 6-2 13-2 2 0 0 3 0 5l1 1v3l-2 14-4 4v4l-1 3v1l-1 1 1 2h-3l2 1-3 2-3 11v5c-1 2-2 1-3 2l-1 10v2l-3 7h1c-1 2-3 4-5 4l-3-4c-3-5-4-9-1-13l2-1c1-5 0-6 2-11v-5c0-2 2-1 3-2v-6c2-3 3-2 4-5l1-4 2-3-1-3h1c2-4 0-5 2-9v-1l2-2v1l-2-1-7 4c-10 6-21 9-31 13l-5 4-4-1c-2 0-4-1-5-3l-1-1c0-10 2-10 2-21h-1l-1-6 2-13v-15l1-4-2-11 2-2 1-1-1-3-4-18-1-5-2-1h-76l2 1c3 3 4 7 6 10l3 6 1 2h1l-1 1 1 5 2 13 5 16-1 16-2 11-1 6 1 6-2 2 1 3 1 5-5 33-2 4c-1 2 1 5 1 8l-3 13c-1 4-3 7-3 11l1 12-5 11-6 14-2 6h-1l-2 5-4 2-6 8-7 15-2 7 4 1 14 4 12 5 11 7 1-1v-7l-2-5c0-3-4-6-4-9-1-3 1-5 2-8v-2l1-2h4c3 2 1 4 3 7h-1l1 2h1v7l4 20c0 3 2 3 2 7h-1c-2 1-3 4-5 4s-4-3-6-4l-1-1-30-12c-6-2-5-3-11-6l-1 2-1 2c-2 16-4 38 7 57h10c3 1 6-2 9-2zm77 24l-8-1c-5 0-9-4-13-5l-12-1-40-5-23 2c-7 0-10-6-11-11l1-1v-1c-7-7-7-14-8-22v-7l-3-21c-1-10 1-20 7-29l6-10 5-5 2-5 1-3 2-2 3-6c6-7 12-13 13-21l1-16v-1h-2l-13 10c-2 2-4 2-6 2-3 0-5-1-8-3h-1v-3l-2-2-7-4c-5-7-9-15-11-23l1-4-2-5-3-9c-1-6-2-13 0-19l1-11c0-2-2-5-1-8a167 167 0 019-51l8-22c1-2 5-2 6-4l2-5 1-1c0-1 0 0 0 0l5-4 2-3-2-2 2-1c1-1 1 1 2 1l3-1 6-6h3c3-2 7-5 12-5l4 1v1l1-2 6 1 12 1h1l11-1 12 1h5l12-1 12-2 34-2h10c5 0 5 2 10 1l26-2c3 0 7 3 11 3h5c11 0 22-1 34 1l29 3h29l9 2c1 1 1-1 3-1l11 1 27 1c6 0 9 6 11 10v2l13 19v8h2c0 2 1 1 2 2v5l2 2 2 2c2 7-1 7 0 14v2l2 5 1 7c1 10-1 20-1 30v3c1 6 0 11-1 17-1 7-1 15-3 22l-4 9c-1 2 2 3 2 5-1 2-3 3-3 5l-4 13-1 6-3 1v4l-6 8-4 6v1l-1 8c1 10 1 21 6 30l6 14 3 6 2 4 4 9 5 21 2 2 2 7-2 2c0 8 0 10-9 11l-20 2-18 3-44 4c-3 0-3 3-6 3h-9l-12 1-18 1-15 2c-6 1-11 5-17 5l-9 1h-10l-18 1h-20c-2 1-5 3-8 3h-2l-30-1-6-1c-1-1-3 2-5 2z"/><path class="st5" d="M680 536l-5 13-8 23-4 14v6l3 16c0 7 4 12 7 17 5 11 12 21 15 34 0 4 3 8 4 12 3 8 2 9-5 10l-23 3c-4 0-7 3-10 3l-9-1c-5 0-5-4-6-7l-7-12c-2-2-1-4 0-5 7-2 9-8 14-11l4-2 2-2 13-9c3-2 2-4 1-6l-3-1-26 19-3 2-5 4-5 6 1 4 2 5 5 6 3 8-2 1-3 3-15-2-35 4-43 4-19 1-18 2-3-37-1-6-1-13-4-5-4 2-5 5-4 3-2 2-4 1-9 7-4 2-4 3 3 1-9 6 9-6-3-1-28 17h-3c-7-6-12-12-15-21l-7-24c-2-5-2-11-2-16l-2-11v-47c0-4 1-8-4-11l-3 5-1 14v44l2 10v4l7 25c4 13 11 24 20 33 3 3 6 5 11 2l10-5 10-7 4-2 8-4 11-8 16-10 1 20 3 25-2 4h-1l-2-1-1 1h-1l-20 1h-9l-16 1c-17 1-35 0-53-1l-26-4h-31a89 89 0 01-10-59l1-4 3 1 4-1-4 1 41 17c4 2 8 5 12 1l-5-26-1-6-1-1v-3l-3-4h-1l-2 9 3 15 2 9-10-4-17-7-19-7 11-22c2-5 5-8 8-12l3-4 10-20 2-11 3-23 3-21 5-36v-8l1-8 2-18v-15l-2-17-5-17-3-8-10-15 80-1 2 4 2 5 3 19v35l-1 20-1 21c2 3 4 3 7 2 13-5 25-8 36-16l13-4h1-1l-1 3v1l-1 2-4 8v1l-2 5-1 4-3 6-1 5-1 2-2 5-3 10v2c-3 4-2 8 0 12 1 3 4 3 5 0l1-7 1-2 1-10 3-3v-2l1-2 4-11v-2l2-4h1v-4l2-3 6-18-1-5-12 2-2 1 2-1 12-2-1-2-12 2-5 1 1 2 2 1-2-1-1-2-2 1-3 2-1 1-2 1 3 1 2-2-2 2-3-1-6 2-4 2-2 1-8 4h-1l-9 4-2-3v-10l1-2v-2l1-11v-5l1-8 1-2v-3l-1-1v-13l-1-4v-2c1-3 0-6 2-9v-9c-1-4-1-8-3-11-1-3 1-4 3-4a511 511 0 01103 2l38 1 28 2 34 2 6 1 12 1c3 0 5 3 3 7 1 1 1 5 4 4l2 4c0 4 0 8 5 10v2l1 2 2 3a493 493 0 012 10c4 9 6 19 6 30v11l-4 2-10 1-12 1h-23l5-14 12-24c3-5 2-7-3-11a8447 8447 0 00-25 57l19-1 28-1 14-1c-1 22 0 45-13 65M510 706h2-2M337 457v-17l2-3v-1l4-9 2-1-2 1h2v4l1 7v6l-1 3v5l-1 1-1 6v10l-2 3c-4-5-4-10-4-15m-3-58h-1 1m14 127l-1 2c-3 6-5 12-12 15l-10 2-1-2-2-1-1-2-6-10-6-14-2-8-1-2v-1l1-8v-10l-1-8v-1l1-3v-15l1-4v-9l1-3v-3l1-1v-7l1-4 2-10 1-4v-2l1-2 1-3 1-1 2-5v-3h1l6-9h1l3-2 10-9c2-2 5-2 7-3l1 1v7l-4 3-5 3-8 9h1-1l-3 6-3 5h-1l-3 3v4l-3 4v4l-1 5-1 4-1 2-2 10v2l-1 5-1 3 1 8v3l-1 3v10l1 3c2 5 1 12 6 16l2 3 2 2v1l3 3 1 1 3 1h5l2-1h1v-1l1-1h2-1l5-12v-3l2-7 1-4 1-1 2-3-1-6 1-5v-5l1-1v-8l1-2v-14l-1-2v-9l-3-3c-3-5-5-4-9 0s-6 9-7 15l-1 1v13l-1 11c0 7 3 11 7 13l4 2-2 9-1 4-1 2v2l1 2-4 6-5 2h-1l-1-1-3-4-3-6-1-2-1-3v-1l-1-3v-10l-1-1v-5l1-3v-6l-1-1 2-13 1-7 1-2v-1h1v-1l1-10 2-3 1-1v-2l1-1 5-9 3-2 1-1 4-6 1-1v-1h4l3 2h1l3 8 1 2 1 1 2-1-2 1 1 2 2 4v2l4 14v8l1 23-1 8-1 15-4 21-8 19m5-128l-2-4h2l1 3-1 1m3 4v-1 1m0-2h-2 2m345 39l-1-8-2-13-1-2-2-3v-4l-2-2-1-4-12-24c-3-4-5-9-12-9l-38-2h-3l-27-2c-13-1-27-1-40-3s-26-2-38-2h-48l-43 1-25 2-28-1-18 1h-2c-6-2-11 2-16 5l-12 7v-1l-1 1h-1v2l-6 4-4 6-11 27a224 224 0 00-9 51v18c-2 10 1 19 2 28l3 9c1 8 5 15 10 21l7 8 3 2c3 4 7 4 11 1l18-13c-1 6-3 14-3 22-1 8-6 15-11 22l-6 8-4 7-10 16c-5 9-8 18-7 27l2 21c1 10 0 21 8 29l1 2c1 5 3 8 8 8l24 2 39 4 26 4h19l30 1h2l28-2 28-3 26-2c11-2 21-5 32-6l22-2 50-4c13-2 25-5 38-6 9-1 8-2 8-11l-3-9-6-20-4-15c-3-6-5-13-9-19-5-10-6-20-7-31l2-9 3-7 7-11 5-7 4-18 1-4c2-11 6-21 7-32l1-20-2-36M775 533c11-29 12-30 16-60 1-5-4-9-6-4-12 30-12 30-16 63-1 4 5 4 6 0m10 2l2 1c2 0 0-2 1-4 8-27 13-25 18-53 0-4-5-5-6-2-14 26-8 29-15 58m22 7c13-27 14-28 18-58 1-5-5-1-11-1l-1 5-6 19-2 6-1 9v5c-1 4-4 9-7 12 2 6 7 7 10 3m20 4c6 1 6 4 11 2 2 0-1-2 0-4l1-2 1-2 1-5-2-1 1-6 2-2c-1-1 1-2 1-4l1-13 2-16-1-3-10-3-2 1 1 1-2 6-7 20-1 9c-1 6-4 11-6 16v5l4 1h1l1 2 3-2m25 5l1 1c2 0 2-2 3-2l1 2c3-3 3-6 4-10l1-4v-16l1-16c1-5 2-7 1-9-2-1-4-4-8-4l-1 2v6l-3 17-3 16v16l1 1h2m-86-10l-1 3 1 8-2 2c-1 4-2 8-1 12 1 6 5 12 13 15 3 2 6 1 9 2l3 2 4 3 4 2 9 2 2-1 9 2h13l4-2 1-1h2l5-4h2l3-3 3-5v-1l2-3 2 1-1-2v-3l1-2v-6l-1-2-4 1h-5v4l-6-3 1-2h-4v-2c-11-1-21-5-31-8l-12-4c-6-2-12-1-18-2-2-1-4-3-7-3m25 58l-1 3c0 2 2 5 1 8l-7 19-8 27c-4 12-8 25-1 38 2 4 6 5 10 5 2 0 3-1 4-3 5-6 7-10 9-17 0-1 2-1 2-3v-10l2-17 1-34-1-13c-4-4-6-2-11-3m-6 111l-9-2c-9-5-13-14-14-23-2-10 1-19 4-29l1-5c2-9 5-17 8-23v-7l2-5 4-12c1-2 3-3 3-5 1-3-2-5-5-6h-2c-13-6-26-18-24-33 0-7 2-13 4-20l3-19 2-11 4-14 1-6v-1l4-6 1-4 3-13 1-2 1-1 1 1v-3l3-1h6c2 0 1 2 3 2 1 0 1-2 2-1 2 1 1 3 4 5 0 0 2-3 3-2h2l3 4 2-2 10 4 1 1h5c5 1 4 3 9 4l22 8 9 2 4 1c8 3 11 9 10 18l-2 7v6l-1 13-4 23a64 64 0 01-25 45c-5 4-11 4-18 4l-4 1c-10 0-8 0-9 9l-3 12 3 10-3 11-1 9 2 7-1 8-3 13c-2 8-4 17-10 24-3 4-9 4-12 4"/><path class="st5" d="M842 590l-1-2 2 2h-1zm-7-1v2l-3 1-4-2-13 2-11-1-9-2-5-1-3-3-12-6c-6-3-13-7-14-14-1-5 1-10 1-15l3-13 25 7c15 4 29 10 44 11l4 2c1 1 4 4 5 3 3-4 7-1 11 0v7l-2 2v2l-2 1h1l-1 1-1 3v1l-4 5-3 4-6 3h-1zm-34 58v20l-1 9c-2 7-6 13-11 19s-13 4-16-2c-6-13-2-26 1-39l13-47 1-12 13 5v47zm-19-181l10 5-16 62-8-1 14-66zm17 8l9 2-17 55c-1 3-1 5-6 3l14-60zm25 7c-6 20-10 41-17 61l-14-5c5-5 8-11 10-17 2-5 0-11 2-16l8-26 11 3zm8 4l13 1 3 6-8 28 2 6-2 6 1 1v5l-2 2-1 2 1 3h-1v3l-12-2-3 1v-2h-2c-4 0-5-2-3-7 3-8 4-17 6-25l9-26-1-2zm17 47v-17l4-24c9 0 12 3 10 13s0 22-2 32c0 5 0 11-5 15l-1 1h-3l-1-2-2-1h-3l3-17zm10 46c5-8 7-17 8-27l5-36 4-13c1-8-3-14-11-17l-12-5-32-8-6-2v-2l-10-3-2 1-4-2h-3l-1-1-5-2-1-1-9-1-2 2h-2l-2 3-5 17-2 6v2l-4 19-7 31-3 20c-2 14 11 26 24 32 3 1 8 2 6 7l-5 18-5 10-6 24c-2 11-4 22-2 33 1 9 2 18 11 22 5 3 14 5 19-1 6-7 9-15 11-23l2-13 1-15 2-20-2-22c1-10 2-9 13-10 7 0 16 1 22-4 5-5 11-12 15-19z"/><g transform="translate(642 296)"><defs><filter id="empty-state-mask-filter_1_" filterUnits="userSpaceOnUse" x="20.9" y="-65.3" width="256" height="182"><feColorMatrix values="1 0 0 0 0 0 1 0 0 0 0 0 1 0 0 0 0 0 1 0"/></filter></defs><mask maskUnits="userSpaceOnUse" x="20.9" y="-65.3" width="256" height="182" id="empty-state-mask-4_1_"><g filter="url(#empty-state-mask-filter_1_)"><path class="st3" d="M21-65h256v182H21z"/></g></mask><path d="M64-39c7 0 13 1 20 6h3c9 7 8 9 18 15 0-3-2-5-3-7-8-12-15-25-30-30h-2l-11-2c-3 0-5 1-8 3s-4 4-4 7c1 4 3 8 7 8h10m51 28v1h1l-1-1m13 128c-12 0-24-4-36-12l-8-8c-2-3-3-7-2-11 1-3 4-6 6-7l17-4 6-2h5l8-2 2-3c1-1-1-1-2-2l-13-9-3-2-18-9-1-2-1 1-2 5-7 10h-1c-3 4-7 8-14 8h-2c-7-2-13-5-16-13v-5l2-16v-4h-5c-11 0-20-9-21-20 1-1-1-3-1-4V3c-1-13 6-22 15-30l7-6 3-1-2-4-3-8c-3-6 0-10 4-14 3-3 7-5 13-5l8 1c5 1 12 0 17 3l1 1c5 2 11 5 14 12l3 3 2 2 2 4c3 4 7 8 9 13l4 9v4l8-2 17-10 22-12c4-2 9-3 13-6l14-10 14-6 6-4h1c2 3 4 5 3 7 0 2-2 3-6 4-5 2-11 4-14 9l-8 5-3 3-7 4c-5 4-11 7-16 9l-17 7-11 6-10 4-5 3c-3 2-3 4-7 5l-1-3-2-4-1-1-8-8-22-14c-5-3-10-3-15-3-6 0-11 2-17 6-9 8-13 17-17 26-1 2-1 5 1 9 1 3 5 7 7 7l4 1 2 1 4-1c2 0 4 0 4-5l1-3c1-3 0-6 2-8 3-4 7-10 14-10v-1c5 0 11 1 16 3l12 8 4 2c2 2 6 4 5 9v1c-4-1-3-2-7-4L84 7c-3-2-6-4-9-4h-2c-5 0-9 3-10 8l-2 8v5c0 2-1 2-2 3v3l-2 24 1 4 4 1 1 1c3 0 4-1 5-4 1-6 4-10 7-17 2-3 4-4 7-4h1c7 1 13 3 19 6l10 5 8 4 5 3c7 3 10 9 12 15 1 3-1 6-5 9-6 4-12 6-19 7l-6 2-15 3-3 2 3 3 6 3a65 65 0 0030 10c6 0 12-1 18-4 10-5 13-13 12-24l-4-14-1-2-2-7-4-15c-1-3-3-7 2-12l14-10 4-4 14-8 8-3 15-9 23-13 34-14c3-1 5-3 8-3h4v1c2 3 4 4 4 6s-3 3-6 4l-17 8-10 6-26 12-10 4-38 19c-3 1-6 2-9 5l-2 2c-6 6-3 12 1 19v1l5 12v7l1 2 1 3c2 11 1 20-4 28-5 7-15 11-25 12l-10 1" mask="url(#empty-state-mask-4_1_)" fill-rule="evenodd" clip-rule="evenodd" fill="#1f1f1f"/></g><path class="st5" d="M692 241c8-5 15-2 22 0 15 5 23 17 31 30 1 3 3 5 3 9l-21-15-1-1-1-1c-9-6-19-8-29-5-6-1-7-5-8-9-1-3 0-6 4-8m65 44h1l-1 3-1-1 1-2m22 128c21-4 33-19 29-40l-2-6c-2-6-3-13-6-19-3-7-7-13 0-20l11-8 48-24 32-14 22-11c6-2 6-4 2-8l-11 1-34 16-40 20-21 11-18 14c-5 5-4 9-3 13l8 21 5 16c1 11-2 20-13 25-9 5-19 6-29 4-10-3-18-8-26-13-3-2-3-6 0-7l15-4c9-1 18-1 26-7 3-2 5-6 4-9-3-6-5-12-11-15-5-2-9-5-14-6-9-4-18-11-28-11-4-1-7 1-8 4-3 5-5 10-6 16-2 5-5 5-8 4-4 0-6-2-5-6l2-24 1-6 2-13c1-7 8-11 13-10l10 4 20 9c0-5-3-7-5-8-5-4-10-8-16-10l-15-3c-7 0-11 5-14 10-2 3-2 8-3 12-1 5-3 6-9 5l-6-2c-5-1-10-11-8-17 3-9 8-18 17-25 10-8 21-9 32-3s21 14 31 21l2 2 2 6 7-4 15-8 27-12 23-14c4-2 9-4 12-7 4-5 9-7 14-9 6-2 7-5 2-10l-20 10-27 17-21 11-27 13c-2-6-2-11-5-15l-11-16-4-6c-3-7-10-9-15-12l-17-4c-7-1-15-1-21 5-3 4-5 7-3 12l5 13-10 9c-8 7-16 15-15 28l1 8c1 12 13 21 26 18l-2 22 1 4c2 7 7 12 14 13 8 2 13-3 17-8 4-4 6-10 9-15l3 1 18 9 17 10c3 2 2 6-1 7l-13 3-23 6c-6 2-7 12-4 16l8 8c13 9 28 14 45 12M205 476c-5 0-8 4-12 5h-2c-11 5-18 15-22 27l-3 14-3 5v-1l20-20 3-4 10-6c4-2 9-4 15-4l1 2c3-2 4-6 3-10 0-3-2-4-6-5-2-1-3-3-5-3m-25 162c-5 0-11 0-17-2-15-5-22-15-22-28l-1-4-1-15c0-7 0-9-8-13-7-4-16-4-23-6l-9-2-12-2-6-2-10-1-21-5-16-2-15-2c-3 0-3-2-4-4v-5c1 0 0 0 0 0l1-1 6 1 15 2 32 7 18 2 15 4 17 5 6 1h2l4 2c4 2 9 1 13 3s4 8 4 12l1 8c-1 9-2 18 2 26 3 5 7 8 14 11l15 3 15-3 16-10 7-4c-2-3-6-6-11-6l-2 1-19 1h-6c-3 0-7-2-10-4-3-1-6-3-6-7-1-4 2-9 6-11 5-5 12-9 19-14l11-7 6-2 3-2c3 0 6 1 8 4l4 4c2 3 4 8 7 10 1 1 3-1 5-1h4l3-1-1-5-11-20-2-1v-3l-3-3c-2-3-3-8-6-10l-9-3c-4 0-7 2-11 5-7 5-12 10-18 13l-2 1 2-2c0-7 2-11 7-14l4-2 4-5c1-1 0-2 2-3l2-1 9-2c4-1 4 1 8 1 0 0 1-2 2-1 7 3 12 9 15 16 2 3 4 6 6 6s3-3 4-4l10-7c3-4 4-9 0-14-8-9-18-15-31-18l-8-2c-8 0-14 4-20 9l-19 17-6 9h-1v6h-3l-3-1-2 2-45-10c-8-1-15-4-23-6l-12-3-11-1-10-2c-2 0-5-2-6-4-1-1-2-4-1-6h9c4 0 9 3 14 4l24 6 28 6 20 5h7l2-1 2 1-3-2 1-7v-4l3-7 5-13c0-5 2-8 5-11l4-4 5-4 4-2 21-9 5-1c5 0 11 2 15 6 2 2 2 8 2 12l-2 4c1 2 0 2-1 3v2l7 2 16 7c7 3 13 9 16 18 4 9 5 17 1 22-3 6-10 9-19 9 0 1 0 0 0 0v5l6 9c4 6 0 12-3 17-3 3-8 5-13 5h-4c-8-3-13-6-17-11l-5-2-2-1-5 3-11 10-4 2-7 5-2 3 1 1 2 2 14-1 14-1 1 2c9 0 15 3 18 10 2 4-3 6-4 8h-1a55 55 0 01-40 19"/><path class="st5" d="M216 578h-1v1l1-1m-6-4h-1v1l1-1m2-80c-5 0-11 0-16 3l-13 10-18 21-2 1 5-20c4-12 11-22 22-27 6-3 12-6 20-3 3 1 7 3 7 6 0 4-1 7-5 10m-54 40v-2l2 2h-2m85-29l-22-11v-4c0-5 1-12-2-14-4-4-10-9-17-7l-25 11-6 3c-3 5-9 9-9 16-1 7-4 14-6 20v14h-5c-9-1-17-4-26-6l-52-11-21-4c-1 6 2 7 5 8l21 5 35 9 46 7c2 1 10 4 7-5v-1c8-9 16-19 25-26 8-7 19-9 29-6 12 3 22 8 30 18 5 5 6 10 2 15l-10 8c-5 3-9 1-11-4-4-7-9-12-16-15l-1 2-8-1-8 2 3 1-3-2-4 4-4 5c-5 4-13 6-13 14 7-3 13-6 19-11 7-6 13-7 20-1 4 3 7 8 10 12l1 4 11 20c2 3 2 7-1 8s-8 0-10-2l-12-12c-3-2-5-4-9-2l-17 9-20 12c-6 5-6 17 0 19 3 2 7 4 11 4l25-2c6 0 9 1 11 6l-22 14c-10 4-20 3-30 0-6-2-12-4-15-10-5-11-3-23-3-35 0-4 0-7-4-9l-16-7-7-2-33-7-49-11c-7-2-15-1-22-2-2 5 0 7 3 7l32 6 30 5 18 4c11 2 22 4 32 9 9 5 11 6 11 13v19c1 14 9 23 21 27 22 7 43 0 58-15 2-2 6-4 4-8-3-8-9-12-18-11h-28l-6-2 4-5 11-8 16-13 8 5c5 5 10 8 17 10 5 2 13 1 17-4 4-4 5-11 1-16l-6-15h1c18-1 25-13 18-30-3-9-9-14-16-18M435 461v9l2 4v-21l-2 4v4M336 510l1-1h-2l1 1M351 433v-1 1M306 478h-1M851 575l-1 1v-1M601 622c-3 0-5-1-7-4l-6-12-3-5-2-3-1-2c-4-5-1-9 1-11l1-2 4-6 2-2 2-3h1v-1l4-5 3-3h-1l1-1 3-3 6-8 4-2 1-1 1-1 1-1 1-1 7-7 1-1 3-3c4-4 4-4-1-9l-16-16-8-9-12-13-5-5-1-1-1-1-8-9-21-23-3-3-17-20-5-9-1-4h-1l1-1c1-3 3-6 6-6h17l10 1h5l7 1 17 2h2l4-1 1-6v-8l1-3 2 2c6 4 8 8 7 14-1 5-4 9-10 11h-9l-19-1-22-2h-8l3 5 9 12 14 14 14 13 16 19a644 644 0 0033 34l7 6c3 4 5 8 5 12s-2 8-5 11l-5 6-3 3-6 6a384 384 0 00-17 19l-2 3-4 4-7 9 1 5 7 12 5 7 1 3v3h-1l-4 1"/><path class="st5" d="M621 506l-15-14-27-32-28-27-13-18 2-2 30 2 28 1c5-1 8-5 9-10 1-4-1-8-7-12l-1 7c1 8-1 10-8 10l-24-3h-5l-10-1-5-1h-4l-4 1c-5-2-7 1-8 5 2 4 3 9 6 12l19 23 30 32 1 2 17 18 24 25c5 5 6 6 2 12l-4 3-1 1-7 7h2-2l-1 1-2 2v1-1l-4 3-7 8-2 3-3 4-4 4-1 2-2 3-2 2-4 5-1 2c-2 3-4 6-1 9l1 2 2 3 9 17c2 5 5 5 9 3l-1-3-12-20c-1-2-2-5-1-6l11-14 5-8 20-19 8-9c6-7 6-15 0-21l-15-14M587 664l-39-2c-5 0-8-3-8-8l-2-22-1-10-3-24c-2-10-7-17-16-21l-12-6-8-2c-5 0-10 2-17 7l-18 16-8 7-2 1-1 2h-1l-5 11-1-3c-2-4-3-7 0-11 7-11 16-20 27-28l10-7v-1h2l12-3 4-1h4l1 1 4 1 12 4 11 8 1 1c6 6 10 14 12 25l1 6 2 10v12l1 8 1 8 1 4v5h7l27 1 6 1 3 4 1 2 1 2h-2l-2 1-4 1h-1z"/><path class="st5" d="M587 654l-36-1-1-6-2-12-1-20-2-16c-2-9-5-18-12-24l-12-9c-5-3-10-4-16-5l-4-1-4 1-12 4-11 7c-10 8-19 17-27 27-2 4-1 6 0 10l4-8 1-1 1-2h2l26-23c8-6 16-10 26-6 5 1 9 3 13 6 10 5 15 13 17 23l3 31 3 25c0 4 2 7 6 7l39 1 6-1-3-6-4-1M786 678l-2 3-4-2c-2-2-1-13 1-15l6-1-1 15m1-22c-2-1-5 0-7 2-5 4-7 10-7 17 0 8 5 13 12 12 2 0 6-2 6-4 2-5 2-10 3-16l-1-6c-2-2-4-5-6-5"/></svg>