<svg id="Layer_1" data-name="Layer 1" xmlns="http://www.w3.org/2000/svg" viewBox="0 0 100 100"><defs><style>.cls-1{fill:#2a3e45;stroke:#2a3e45;stroke-miterlimit:10;stroke-width:0.37px;}</style></defs><path class="cls-1" d="M69.5,33.9a23.12,23.12,0,0,0,.2-2.31,12.36,12.36,0,0,0-.26-2.32c0-.22-.07-.43-.1-.64a10.5,10.5,0,0,0-.17-1.2,2,2,0,0,0-.2-.5,2.3,2.3,0,0,0-.38-.48l-.24-.2a4.39,4.39,0,0,0-.51-.32l-.53-.29-.25-.14a4,4,0,0,0-1-.45,4.71,4.71,0,0,0-1.17-.17,5.1,5.1,0,0,0-1.09.11,10.37,10.37,0,0,0-1.19.3A9.63,9.63,0,0,0,61,26l-.56.29c-.59.33-1.14.68-1.7,1.07a3.87,3.87,0,0,1-1,.42,4.33,4.33,0,0,0-.73.31l-.21.14c-.54.41-.85,1.13-1.39,1.54-.25.19-.48.37-.68.5a1.61,1.61,0,0,1-.29.15.44.44,0,0,1-.48,0,1.79,1.79,0,0,1-.41-1,3.33,3.33,0,0,1-.05-.37,4.38,4.38,0,0,0-.31-1,6,6,0,0,1-.37-1,4.42,4.42,0,0,0-.15-.48c-.12-.31-.25-.62-.38-.94-.06-.15-.11-.31-.16-.48a2.09,2.09,0,0,1-.08-.5v-.26a4.33,4.33,0,0,0,0-1.3,2.8,2.8,0,0,0-.39-.84,8.11,8.11,0,0,0-.54-.73c-.13-.16-.25-.31-.36-.47s-.22-.33-.34-.49a7.25,7.25,0,0,0-.75-.91,3.57,3.57,0,0,0-1-.67c-.35-.16-.74-.27-1.12-.4l-.59-.2a4.48,4.48,0,0,0-2-.41,4,4,0,0,0-1.06.22,2.33,2.33,0,0,0-.84.54,2.82,2.82,0,0,0-.64,1.62c0,.1,0,.19,0,.29-.09.76-.42,1.48-.44,2.22a20.31,20.31,0,0,0,.35,2.23,20.14,20.14,0,0,0,.18,2.22,19.56,19.56,0,0,0,.51,2.17,21.94,21.94,0,0,0,.58,2.15c.25.71.5,1.41.81,2.09s.64,1.35,1,2,.46,1.46.87,2.1a6.35,6.35,0,0,0,.7.89,10.32,10.32,0,0,1,.73.88c.43.6.94,1.16,1.41,1.76.32.4.19.85.38,1.35-.28-.22-.5-.34-.74-.52L48.57,42c-.63-.63-1.25-1.26-1.87-1.86a16.09,16.09,0,0,0-2-1.66,9.18,9.18,0,0,0-2.32-1.23,8.61,8.61,0,0,0-2.6-.45,13.58,13.58,0,0,0-2.32.36l-.31,0-.62,0a4,4,0,0,0-1.41.18A6.88,6.88,0,0,0,33,38.51a5.36,5.36,0,0,0-1.4,1.94,6.29,6.29,0,0,0-.4,2.34,9.7,9.7,0,0,0,.39,2.32,14,14,0,0,0,.71,2.24c.4.89.76,1.44.55,1.76s-.86.52-1.81.61a8.06,8.06,0,0,0-2.18.31c-.93.37-1.65.94-1.66,1.3a18.29,18.29,0,0,0,0,2.21,11.69,11.69,0,0,0,.64,2.11,6.5,6.5,0,0,0,.71,2.07A13.8,13.8,0,0,0,30,59.63a14.38,14.38,0,0,0,1.87,1.42,7.3,7.3,0,0,0,1.6.74L34,62l1,.52c.35.17.71.32,1.07.47a3.6,3.6,0,0,1,.52.26l.51.31.52.29a4.16,4.16,0,0,0,.54.23c.51.16,1.45.79,1.39,1.21-.1.73-.59,1.4-.73,2.11s0,1.5-.24,2.21c-.14.53-.23,1.08-.37,1.62,0,.18-.1.36-.16.53a3.22,3.22,0,0,1-.23.5c-.17.33-.39.64-.58,1-.09.16,1.24-1.81,1.16-1.64a4.52,4.52,0,0,1-.25.49l-.31.46c-.2.3-.42.6-.6.93s-.33.65-.49,1a6,6,0,0,1-.53,1,7.69,7.69,0,0,0-.54,1,5.19,5.19,0,0,1-.59,1,2.27,2.27,0,0,0-.37.64c-.09.23-.16.47-.23.72s-.09.35-.15.52l.78.21a3,3,0,0,0,.56.13h.18a1.34,1.34,0,0,0,.35,0,1.21,1.21,0,0,0,.33-.15,1.61,1.61,0,0,0,.3-.29,1.91,1.91,0,0,0,.14-.21c0-.08.09-.16.13-.26.3-.66.82-1.23,1.13-1.88s.43-1.42.74-2.08a7,7,0,0,0,.38-1,9,9,0,0,1,.37-1l.21-.51c.13-.34-1.18,1.45-1.05,1.11.06-.17.13-.34.2-.51.16-.39.31-.77.45-1.16s.27-.78.38-1.19c.23-.81.44-1.63.69-2.43a5.1,5.1,0,0,1,1.91-2.25,6.8,6.8,0,0,1,2.55-1.37,1.89,1.89,0,0,1,2,.29c.44.49.4,1.46.81,2a10.52,10.52,0,0,0,1.78,1.3c.57.46,1,1.15,1.66,1.46s1.49.1,2.21.27a12.13,12.13,0,0,0,2.09.67A5.24,5.24,0,0,0,57.85,70c.67-.3,1-1.12,1.39-1.7A3.94,3.94,0,0,0,60,66.42a3.35,3.35,0,0,0-.17-1.94,4,4,0,0,0-1.36-1.4,4.54,4.54,0,0,0-1.78-.75c-1.09-.24-2.18-.47-3.25-.75a1.34,1.34,0,0,1-.66-1.18c.15-.92.09-1.89.29-2.81s.45-1.83.66-2.74a8.81,8.81,0,0,1,.41-1.19c.32.22.65.71,1,.9.68.41,1.46.67,2.14,1.1s1.26,1,2,1.41a16.15,16.15,0,0,0,2.28.79,5.82,5.82,0,0,0,2.15.61,5.76,5.76,0,0,0,2.15-.64,5.24,5.24,0,0,0,1.75-1.3,4.77,4.77,0,0,0,1.32-1.78,9.6,9.6,0,0,0,.5-2.41,5.05,5.05,0,0,0-.79-2.29,4.9,4.9,0,0,0-1.25-2.13A8,8,0,0,0,65,47a23.74,23.74,0,0,0-2.82-.5c-.93-.17-1.83-.55-2.76-.74a6.82,6.82,0,0,1-.79-.08c.29-.11.43-.31.72-.43.75-.33,1.44-.69,2.11-1s1.55-.52,2.18-.9A20.05,20.05,0,0,0,65.56,42a12.63,12.63,0,0,0,1.71-1.62,10.12,10.12,0,0,0,1-2.11c.35-.68,1-1.24,1.25-2A16.73,16.73,0,0,0,69.5,33.9ZM49,38.46a17.49,17.49,0,0,1-1.25-2.09c-.37-.7-.71-1.44-1-2.22s-.94-1.41-1.2-2.19-.09-1.73-.3-2.51a4.93,4.93,0,0,0-.35-.9,6,6,0,0,1-.55-1.43,15.38,15.38,0,0,1-.1-2.48,6.19,6.19,0,0,1,.16-1.55c.27-1.15.46-2.41.79-3.54.61.27,1.43.49,2.07.73a5.06,5.06,0,0,1,1.9,1,4.82,4.82,0,0,1,.8,1.79l.1.28c.07.17.15.34.22.52a10.34,10.34,0,0,1,.62,1.56,13.64,13.64,0,0,1,.24,1.7,5.58,5.58,0,0,0,.08.57,4.94,4.94,0,0,0,.15.55,14.31,14.31,0,0,1,.52,1.65c.12.75,0,1.55.16,2.29,0,.26.22.63.13.86-.34.85-.86,1.85-1.23,2.69C50.6,35,50.23,34,50,33.24c-.26-.94-.39-1.92-.62-2.87a10,10,0,0,0-.66-1.72,8.18,8.18,0,0,1-.41-1,1.49,1.49,0,0,0-.27-.51,5.24,5.24,0,0,0-.73-.81A11.87,11.87,0,0,0,47,27.72a1.7,1.7,0,0,0,0,.22l0,.19.2.6c.22.6.47,1.19.66,1.8.25.81.27,1.7.53,2.51s.59,1.59.84,2.4.71,1.56.95,2.37a7,7,0,0,1-.07,1.93A8,8,0,0,1,49,38.46ZM39.74,62.07c-.38-.47-.76-1.15-1.1-1.64-.12-.16-.24-.31-.37-.46-.38-.46-.8-.88-1.13-1.37-.45-.65-.74-1.39-1.19-2s-1.14-1.12-1.61-1.75a1.24,1.24,0,0,0-.26-.25,3.1,3.1,0,0,0-.73-.36l-.4-.15a4.06,4.06,0,0,0,.59,1.34c.49.63,1,1.23,1.54,1.86s.81,1.41,1.32,2,.93,1.32,1.44,1.94a3.83,3.83,0,0,1,.54.73,2,2,0,0,1-.94-.28c-.78-.39-1.65-.63-2.44-1a22.58,22.58,0,0,1-2.37-1.15,9,9,0,0,1-1.81-1.83,6.72,6.72,0,0,1-1.36-2.11,8.71,8.71,0,0,1-.64-1.77c-.11-.86,0-1.79.22-1.91a7.57,7.57,0,0,1,2.26-.41,5.49,5.49,0,0,1,2.23.13,8.34,8.34,0,0,1,2.18,1A8.63,8.63,0,0,1,37.78,54a8.92,8.92,0,0,1,.91,2.24,10.63,10.63,0,0,1,1.12,2.14,12.54,12.54,0,0,1,.12,2.4C39.92,60.78,39.83,61.52,39.74,62.07Zm5.23.72a4,4,0,0,1-2.43.27c-1.44.3-1.61-.42-1.77-1.88a21.93,21.93,0,0,0-.51-2.35c-.16-.77-.14-1.61-.33-2.38s-.49-1.52-.66-2.3c-.08-.35-.33-.76-.4-1.12.29,0,.69,0,1,0,.8.08,1.67.3,2.51.34h.34a4.28,4.28,0,0,1,1.77.44l.25.16c.4.28.31,1.09.22,2.13a21.83,21.83,0,0,0,.17,2.38c0,.59-.44,1.3-.26,1.85C45.27,61.67,45.43,62.42,45,62.79Zm.49-10.89A6.34,6.34,0,0,1,43,51.7a15.23,15.23,0,0,1-2.45-.57c-.74-.24-1.61-.33-2.45-.67A8.4,8.4,0,0,1,36,49.27a6.81,6.81,0,0,1-1.34-2,7.38,7.38,0,0,1-.82-2.16,9.66,9.66,0,0,1-.19-2.31,6.65,6.65,0,0,1,.06-2.17c.29-.68,1.07-.93,1.7-1.32a5,5,0,0,1,1.89-1.06,14.16,14.16,0,0,1,2.2-.05,6.36,6.36,0,0,1,2.56.09,7,7,0,0,1,2.25,1.24,15.12,15.12,0,0,1,1.9,1.69c.57.62.89,1.46,1.46,2.08a14.33,14.33,0,0,1,1.54,2.34c-1-.08-2-.32-2.94-.37-.23,0-.45,0-.68,0-.45,0-.91.1-1.36.13a5.17,5.17,0,0,1-.68,0c-.9,0-1.8-.29-2.7-.31-.25,0-.34.19-.6.28l.29.2a1.13,1.13,0,0,0,.31.1,4.75,4.75,0,0,1,.63.14,15.29,15.29,0,0,0,1.87.53c.63.11,1.26.27,1.9.4l.63.11c.85.13,1.74-.09,2.6,0,1.6.14,1,.61.45,1.66a9.16,9.16,0,0,1-1.36,2A4.74,4.74,0,0,1,45.46,51.9ZM49.52,61c0-.35-.21-.63-.15-1,.11-.62.21-1.25.33-1.86s.51-1.2.59-1.83c.05-.36-.32-.9-.44-1.29-.29.34-.89.74-1,1.13-.28,1,0,2.18-.25,3.23-.08.37-.59.43-.79.78-.08-.36-.38-.47-.43-.83a11.9,11.9,0,0,1,0-1.2c0-.72.17-1.43.27-2.11A13,13,0,0,1,48,53.92a8.83,8.83,0,0,1,.94-2,9.49,9.49,0,0,1,1.7-1.46,1.1,1.1,0,0,1,1.11.13,3.84,3.84,0,0,1,.91,1.9c.06.65-.39,1.38-.44,2.13a20.94,20.94,0,0,1-.11,2.1,16.19,16.19,0,0,1-.4,2.07,4.06,4.06,0,0,1-1.22,1.69A2.73,2.73,0,0,1,49.52,61ZM55,63.31c.67.11,1.23.66,1.88.87a2.16,2.16,0,0,1,1.47,1,2,2,0,0,1,0,1.81A2.76,2.76,0,0,1,57,68.21a1.8,1.8,0,0,1-1.74,0c-.84-.36-1.78-.53-2.61-.91s-1.67-.74-2.49-1.14c-.2-.11,0-.67-.11-1a5.06,5.06,0,0,1,.87.23c.24.07.44.37.68.4a16.33,16.33,0,0,0,1.69-.11c-.36-.41-.34-.86-.71-1.26s-1.09-.67-1.47-1.05l1.81-.27C53.54,63.25,54.26,63.19,55,63.31Zm4-15.88c.78.12,1.63-.11,2.41,0s1.46.74,2.24.91,1.64-.06,2.41.14c1.06.27,1.72,2.19,2.12,2.72a10,10,0,0,1-.18,2.41,4.76,4.76,0,0,1-1.41,1.92,3.29,3.29,0,0,1-2.05,1.19,5.06,5.06,0,0,1-2.34-.62A14.65,14.65,0,0,1,59.52,55c-.77-.51-1.37-1.27-2.11-1.85s-1.57-1-2.32-1.58c-.39-.29-.6-1.16-.86-1.6a13.47,13.47,0,0,1,1.88.54c.88.34,1.71.79,2.58,1.14s1.89.38,2.77.71a5.48,5.48,0,0,0,1.47.38,3.82,3.82,0,0,1-.21-.36l-.24-.4a1.83,1.83,0,0,0-.53-.61c-.72-.36-1.52-.57-2.27-.89s-1.38-.86-2.12-1.19-1.21-.45-1.79-.72-1.28-.35-1.85-.66c-.28-.14-.5-.7-.7-1a2.27,2.27,0,0,1,1-.23c.78.13,1.56.27,2.34.39Zm8.53-15.07a12.27,12.27,0,0,1-.52,2.27A13,13,0,0,1,66.72,37a12.53,12.53,0,0,1-1.1,2.08,11.9,11.9,0,0,1-1.56,1.76,12,12,0,0,1-1.72,1.62,11.06,11.06,0,0,1-2.1,1.11,11.2,11.2,0,0,1-2.34.36,11.2,11.2,0,0,1-2.32,0,9,9,0,0,1-2.89-1,15.75,15.75,0,0,1,1.51-2c.62-.58,1.17-1.23,1.79-1.8s1.45-.93,2.07-1.51,1.12-1.29,1.74-1.86,1.37-1,2-1.59,1.05-1.36,1.67-1.94a6.31,6.31,0,0,0,1.12-1.51,4.89,4.89,0,0,0-1.82.81c-.64.58-1.23,1.21-1.85,1.8s-1.43,1-2,1.61-1.31,1.12-1.93,1.72-1,1.45-1.62,2c-.42.4-1.11.49-1.58.83a3.82,3.82,0,0,1-.81.57,5.91,5.91,0,0,0,0-1A5.4,5.4,0,0,1,53,37.78c0-.21.07-.41.11-.61s0-.19,0-.29,0-.19,0-.29a10.12,10.12,0,0,1,.35-1.82,3.73,3.73,0,0,1,.2-.56A9.37,9.37,0,0,1,54.79,32a12.45,12.45,0,0,1,1.75-1.81,21.74,21.74,0,0,1,2.17-1.28c.35-.23.7-.44,1.06-.65l1.09-.63.61-.32a7.51,7.51,0,0,1,1.12-.43,3.84,3.84,0,0,1,.54-.13l.69-.14a2.72,2.72,0,0,1,1.8.07c.67.37.86,1.28,1.18,2.18a6.76,6.76,0,0,1,.77,2.36C67.57,31.57,67.45,32,67.45,32.36Z"/></svg>