<?xml version="1.0" encoding="utf-8"?>
<!-- Generator: Adobe Illustrator 25.2.1, SVG Export Plug-In . SVG Version: 6.00 Build 0)  -->
<svg version="1.1" id="Layer_1" xmlns="http://www.w3.org/2000/svg" xmlns:xlink="http://www.w3.org/1999/xlink" x="0px" y="0px"
	 viewBox="0 0 82 82" style="enable-background:new 0 0 82 82;" xml:space="preserve">
<style type="text/css">
	.st0{fill-rule:evenodd;clip-rule:evenodd;fill:#948F29;}
	.st1{fill-rule:evenodd;clip-rule:evenodd;fill:#FFFFFF;}
	.st2{fill-rule:evenodd;clip-rule:evenodd;fill:#2A3E45;}
	.st3{fill:#2A3E45;}
</style>
<g id="HOME">
	<g id="SAMPLES-PAGE">
		<g id="Group">
			<g id="Group-444">
				<path class="st0" d="M60.5,30.3"/>
				<path class="st0" d="M56.3,14.1L56.3,14.1C56.2,13.9,56.2,13.9,56.3,14.1z"/>
				<path class="st0" d="M29.5,65.8"/>
				<path class="st0" d="M55,10.5c0-0.1,0-0.1,0-0.2h-0.2c0,0.1,0,0.1,0.1,0.2C54.8,10.5,55,10.5,55,10.5z"/>
				<path class="st0" d="M56.7,15L56.7,15C56.8,15.2,56.8,15.1,56.7,15z"/>
				<path class="st0" d="M29.6,65.9L29.6,65.9z"/>
				<path class="st1" d="M56.3,25.1c-0.7-0.7-2.7-2-2.7-1.3c-2,4.7,0.7,10.1,0.7,15.4c-5.4-4.7-6-12.8-12.8-16.1
					c-0.7,6.7,6,10.7,5.4,17.5c-6-4-6.7-15.5-14.8-16.1c2,7.4,8.7,12.8,10.1,20.1c-6-2-6.7-10.1-13.4-12.1
					c0,9.4,14.8,14.1,12.8,21.5c-3.4-2-6.7-6-11.4-4.7c-0.7,0.7-1.3,2.7-0.7,3.4c7.2,4.5,12.4,10.4,20.1,13.2l0.6-0.3l0.2-0.2l0,0
					h0.1l0.1-0.1c0.1,0,0.2,0,0.2-0.1l0.9,0.5c0.4-0.4,0.8-0.7,1.3-1c0.4-0.2,0.8-0.3,1.3-0.3l1-0.5l0.8-0.3l2-0.6l0.4-0.5
					c0,0,0.1-0.1,0.1-0.1c0,0-0.1,0.1-0.1,0.1c0.6-0.5,1.2-0.9,1.8-0.1c1-0.6,2.2-1,2.2-2.4l0.6-0.6l1.5-0.9l1.3-1.2l-0.1-0.5
					l0.4-0.5l0.9-1l0,0l0.7-0.3c0-2.3-0.8-4.5-2.1-6.4C60.3,41.2,59.7,33.1,56.3,25.1z"/>
				<path class="st2" d="M69.3,50.3c0.6-2.2,0.9-4.3-0.4-6.4c0.3-1.2-0.2-2.9-0.7-2.6C67.1,42,66.7,41,66,40.8L65.4,40L64,38l-0.4-1
					l0,0c0-0.1-0.1-0.1-0.1-0.2l0,0L64,36l-0.2-0.3c0.1-0.7,0.1-1.3,0-2c-0.2-1-0.5-1.9-0.8-2.9l0.3-0.2L61,30.1l-0.5,0.2l0,0
					L60.2,29c-0.2-0.8-1.5-1-1.2-1.6c0.7-1.2,0.6-2.6-0.1-3.8c-0.1-1.2-0.2-2.4-0.2-3.6c0.9-1.3-0.2-1.5-0.9-2
					c-0.1,0.1-0.1,0.2-0.1,0.3l0.1,0.3l0.5,0.4l-0.2,0.2l-0.4-0.5c-0.1-0.1-0.1-0.2-0.1-0.4c-0.1-0.2-0.1-0.4-0.2-0.6
					c0.1,0.1,0.2,0.2,0.3,0.3c0.3-0.6,1.1-1.4,0.7-1.7L57,14.8L56.7,15c0,0.1,0,0.1,0,0l0,0c-0.1-0.2-0.3-0.7-0.4-0.9l-0.5,0.6
					c0-0.4-1-1-1.2-1.4c-0.1-0.2-2.3,1.7-2.4,1.5c-0.4-0.8,3.3-1.6,2.9-2.4l0.8-1c-0.3-0.6-5,2.1-5.2,2.4l-0.3,3.7L50,16.8
					c-0.1-0.3-0.1-0.6,0-0.9c0.5-1.1,0.2-1.6-1-1.7c-0.4-0.1-0.8-0.4-1.2-0.7c-0.9,0.9,0.3,1.3,0.8,1.8L48,15.8
					c-0.2,0.3-0.4,0.5-0.6,0.8l0.7,1.6l-0.3,0.1c-0.3-0.5-0.5-1.1-0.8-1.6l0.4-0.2c0.2-0.3,0.4-0.5,0.6-0.8c-0.9-0.5-1.8-1-2.7-1.5
					c-0.1,0-0.6,0.5-0.6,0.7c0.2,0.6,0.4,1.1,0.7,1.7l0.3-0.1l-0.1-1h0.2l0.7,1.6c0,0.6,0,1.2,0,1.8l-1-1.4c0,0.1,0,0.2,0,0.3
					c0,0.1,0,0.2,0,0.3c0,0.3,0.1,0.6,0.1,0.9l-1.2,1l0,0h-0.1l0,0l-0.8-1.3l1.5-1.1c-0.3-0.8-0.3-1.8-1.6-1.7
					c-0.2-0.4-0.4-1-0.9-0.2c-0.1,0.1-0.2,0.3-0.3,0.3c-1.5,0.2-1.5,0.2-0.9,1.7l0.3,1.1l-0.3,0.1l-2-2L38.7,19
					c-0.6-0.2-1.2-0.4-1.8-0.5c-0.5,0-1.4,0-1.6,0.3c-0.5,0.9-1,0.9-1.7,0.4c-0.4,0.6-0.7,1.1-1.1,1.6l-0.6-0.7
					c-1,0.5-4.5,0-5.5,0.5l-0.3-0.4c-0.4,1.2-0.8,2.4-1.4,4.1l-1.6-3.9l-0.2,0.1c0.2,1.5,0.4,3.1,0.7,4.9l-2.9,0.7
					c-0.2-0.8-0.4-1.6-0.5-2.3l-0.3-0.1c-0.1,0.3-0.1,0.7-0.1,1c0.3,1.4,0.6,2.9,0.9,4.3c0,0.3-0.3,0.7-0.4,1.1
					c0.2,1.2,0.6,2.4,0.8,3.5c-0.2-1.2-0.5-2.4-0.8-3.5c-0.3-0.4-0.5-0.9-0.8-1.3s-0.6-0.7-0.9-1l-1.1,1l-1.5,0.1
					c-0.5-0.7-1-1.4-1.6-2c-0.3-0.3-1-0.1-1.4-0.2c0,0.4,0,0.9,0.1,1.3c0.5,1.9,1.1,3.8,1.7,5.7c0.6,1.9,1.2,3.8,1.9,5.6
					c0.6,1.5,3.5,3.8,4.2,5.3c0.4,1,2.1,3.7,2.5,4.7l2.5,2.7c0.4,1.1,1.7,5.4,2.1,6.6c0.2-0.2,0.9,3.7,1.1,3.5l-0.1,1.8L28.5,64
					l0.7,1c0.1,0.2,0.2,0.6,0.3,0.8l0.1,0.1l0,0l-0.1-0.1c0.5,0.5-0.4,1.1,0.1,1.6s-0.3,0.9,0.2,1.5l0.3,0.5
					c0.8,1.2,1.4-0.5,2.7-0.6c0.5,0,2.8-0.1,3.3-0.1l2.1-0.2l0.8-0.3l0-0.2c0,0,4.2-2,4.6-1.9c0.2-0.3,0.2,0.8,0.4,0.8
					c2.3,0.1,3,0.2,4.8-0.7l0.8-0.4c-7.7-2.8-13-8.6-20.1-13.2c-0.7-0.7,0-2.7,0.7-3.4c4.7-1.3,8.1,2.7,11.4,4.7
					c2-7.4-12.8-12.1-12.8-21.5c6.7,2,7.4,10.1,13.4,12.1c-1.3-7.4-8.1-12.8-10.1-20.1c8.1,0.7,8.7,12.1,14.8,16.1
					c0.7-6.7-6-10.8-5.4-17.5c6.7,3.4,7.4,11.4,12.8,16.1c0-5.4-2.7-10.8-0.7-15.5c0-0.7,2,0.7,2.7,1.3c3.4,8.1,4,16.1,9.4,23.5
					c1.3,1.9,2,4.1,2.1,6.4h0.1l0.9-1.7c0.4-0.5,0.8-1,1.3-1.3C70.1,51.6,69.2,50.7,69.3,50.3z M34.7,20.6c-0.1-0.1-0.2-0.2-0.3-0.4
					l0.9-0.8l0.3,0.4L34.7,20.6z M43.4,15.8l0.2,0.6h-0.2C43.4,16.2,43.4,16,43.4,15.8z"/>
				<path class="st0" d="M57.5,17.6c0.1,0.2,0.1,0.4,0.2,0.6c0-0.1,0.1-0.2,0.1-0.3C57.7,17.9,57.6,17.8,57.5,17.6z"/>
			</g>
		</g>
	</g>
</g>
<path class="st3" d="M55,72.8c-0.2-0.2-1.3-1.6-1.4-1.8c-0.3-0.6-0.6-1.2-0.7-1.8c-0.1-0.2-0.1-0.5-0.2-0.7
	c-0.1-0.2-0.2-0.4-0.2-0.6l-0.2-0.6l-0.6-0.2l-0.8-0.2c-0.4-0.2-0.8-0.4-1.3-0.5s-1-0.4-1.5-0.5c-0.9-0.2-1.9-0.5-2.7-0.9
	c-0.4-0.2-0.8-0.4-1.2-0.5c-0.8-0.3-1.5-0.7-2.2-1.1c-0.6-0.3-1.2-0.7-1.7-1.1c-0.5-0.4-1-0.8-1.4-1.3c-0.3-0.3-0.6-0.6-0.9-0.8
	c-0.5-0.4-1-0.8-1.4-1.2s-0.5-0.6-0.8-0.9c-0.2-0.2-0.5-0.5-0.7-0.7c-0.7-0.6-1.4-1.1-2.1-1.5c-0.3-0.2-0.7-0.4-1.1-0.6
	c-0.8-0.4-1.6-0.9-2.3-1.5c-0.3-0.2-0.6-0.5-0.9-0.8c-0.4-0.6-0.6-1.4-0.3-2.1c0.1-0.2,0.1-0.3,0.2-0.5l0.2-0.4
	c0.2-0.2,0.4-0.4,0.6-0.7c0.2-0.1,0.3-0.2,0.5-0.3c0.3-0.2,0.6-0.4,1-0.6c0.2-0.1,0.5-0.2,0.8-0.2c1.1,0,2.1,0.2,3,0.8
	c0.8,0.5,1.6,1,2.4,1.6l1,0.7c0.8,0.6,1.7,1.1,2.6,1.6c0.3,0.1,0.5,0.3,0.8,0.4c0.1,0,0.2,0.1,0.2,0.2c0,0.1,0.1,0.3,0.1,0.4
	c0,0.1,0,0.2,0,0.3c0,0.2-0.1,0.4-0.3,0.4c-0.4,0-0.8-0.2-1.2-0.3c-0.6-0.3-1.2-0.6-1.8-0.9c-0.5-0.3-1-0.8-1.6-1.2
	s-1.2-0.8-1.8-1.2c-0.1-0.1-0.3-0.2-0.4-0.2c-0.6-0.5-1.4-0.8-2.2-0.8c-0.4,0-0.7,0.1-1.1,0.2c-0.4,0.2-0.8,0.5-1,0.8
	c-0.4,0.6-0.3,0.7-0.2,1c0.1,0.2,0.3,0.4,0.5,0.6c0.4,0.4,0.9,0.8,1.5,1c0.7,0.3,1.3,0.7,1.8,1.1c0.3,0.3,0.8,0.6,1.2,0.9
	c0.6,0.4,1.1,0.9,1.6,1.3c0.4,0.4,0.9,0.8,1.4,1.1l0.3,0.2c0.4,0.3,0.7,0.6,0.9,0.9c0.2,0.3,0.4,0.6,0.7,0.8
	c0.2,0.2,0.4,0.3,0.7,0.5c0.1,0.1,0.3,0.2,0.4,0.3c0.7,0.6,1.5,1.2,2.3,1.7c0.8,0.4,1.6,0.8,2.5,1.2c0.2,0.1,0.4,0.2,0.6,0.3
	c0.6,0.2,0.8,0.9,1.4,1.1s1.7,0.5,2.4,0.7c0.4,0.1,0.8,0.3,1.2,0.5l0.3,0.1l1,0.3c0.2,0.8,0.6,0.8,0.9,1.6c0.2,0.6,0.2,1,0.4,1.6
	c0,0.1,0,0.2,0,0.2C53.7,70.2,55.2,72.4,55,72.8z"/>
<path class="st3" d="M72.3,64.2c0-0.2-0.1-0.5-0.2-0.7c-0.2-0.2-0.4-0.4-0.6-0.6c-0.6-0.6-1.2-1.2-1.7-1.9L68.1,59l-0.1-0.1v-0.3
	l-0.2-1.1c-0.1-0.8-0.3-1.5-0.4-2.3c-0.4-1.9-0.7-3.7-1.1-5.7c-0.2-1-0.6-2.1-1.1-3c-0.6-1-1.2-1.9-1.9-2.8
	c-0.5-0.7-0.9-1.5-1.2-2.2c-0.2-0.4-0.4-0.8-0.6-1.2c-0.3-0.7-0.6-1.5-0.8-2.3c0-0.2-0.1-0.3-0.2-0.5c-0.1-0.4-0.3-0.7-0.5-1.1
	c-0.2-0.7-0.4-1.4-0.7-2.1c0-0.1,0-0.3,0-0.4c0-0.2,0-0.4,0-0.5c-0.2-0.6-0.4-1.2-0.6-1.8c-0.3-1-0.7-2-1-2.9
	c-0.1-0.3-0.3-0.7-0.4-1c-0.1-0.6-0.4-1.2-0.7-1.8c-0.3-0.6-0.6-1.1-1-1.7c-0.1-0.2-0.2-0.3-0.4-0.5l-0.2-0.2
	c-0.1-0.1-0.2-0.2-0.3-0.3c-0.1-0.1-0.3-0.2-0.4-0.2c-0.2-0.1-0.3-0.1-0.5-0.2c-0.4-0.1-0.8-0.1-1.2-0.1l-1.5,0.2l0.1,1.6v0
	c0,0-0.1,0.1-0.1,0.1c-0.1,0.4-0.2,0.7-0.2,1.1c0,0.2,0,0.4,0,0.6c0,0.3,0.1,0.6,0.2,0.8l0.2,0.7l0.4,1.2c0.1,0.5,0.2,1,0.3,1.5
	c0.2,0.7,0.4,1.5,0.5,2.3c0.1,0.9,0.2,1.9,0.5,2.8c0.2,0.7,0.4,1.3,0.5,2c0,0.3,0.1,0.5,0.1,0.8c0,0.1,0,0.2,0,0.3c0,0,0,0.1,0,0.1
	l0,0l0,0h0.1c0.3,0.1,0.6,0.2,0.8,0.5c0,0,0-0.1,0-0.2v-0.1c0-0.1,0-0.1,0-0.2c0-0.1,0-0.3,0.1-0.5s0-0.1,0-0.1l0,0
	c-0.1,0-0.2,0-0.4-0.1l-0.9-0.5c-0.2-0.1-0.3-0.2-0.4-0.4l-0.5-0.8c-0.6-0.9-1.1-1.9-1.6-2.9l-0.1-0.3l-0.2-0.5
	c-0.1-0.3-0.3-0.7-0.5-1c-0.2-0.4-0.4-0.7-0.6-1.1c-0.3-0.6-0.6-1.2-0.9-1.8c-0.4-0.8-0.8-1.5-1.3-2.2c-0.4-0.6-0.8-1.2-1.4-1.7
	c-0.5-0.4-0.9-0.9-1.4-1.4c-0.4-0.5-1-0.8-1.5-1.1c-0.3-0.1-0.5-0.2-0.8-0.2c-0.3,0-0.7,0.1-1,0.2c-0.6,0.2-1.1,0.7-1.3,1.3
	c-0.1,0.2-0.1,0.4-0.1,0.6c0,0.2,0,0.3,0,0.5c0.1,0.5,0.2,1,0.5,1.4c0.2,0.3,0.3,0.6,0.5,0.8c0.3,0.5,0.6,0.9,1,1.3
	c0.2,0.2,0.3,0.4,0.4,0.7l0,0c0.1,0.1,0.1,0.3,0.2,0.4c0.2,0.5,0.4,1.1,0.6,1.7l0.5,1.6l0.2,0.4l0.1,0.5l0.7,2.3
	c0,0.1,0,0.2,0.1,0.2l0.2,0.5l0.7,2.2l0.1,0.3l0.1,0.3c0,0.1,0.1,0.2,0.2,0.2c0,0.1,0.1,0.1,0.1,0.2c0.2,0.2,0.4,0.5,0.4,0.8v0.1
	l0.3-1c0,0,0.1,0.1,0.1,0.1l0,0c0,0,0-0.1,0-0.1c0-0.1,0-0.1,0-0.1c0,0-0.1,0-0.1-0.1c-0.2-0.1-0.3-0.2-0.5-0.3
	c-0.4-0.3-0.7-0.6-1-1c-0.2-0.3-0.5-0.5-0.7-0.8c-0.6-0.8-1.1-1.6-1.6-2.4c-0.2-0.4-0.5-0.8-0.7-1.1c-0.5-0.9-1-1.8-1.4-2.7
	c-0.2-0.4-0.4-0.7-0.5-1.1s-0.3-0.9-0.6-1.3c-0.3-0.6-0.8-1.2-1.2-1.8c-0.3-0.4-0.5-0.7-0.7-1.1c-0.2-0.3-0.4-0.6-0.6-0.9
	c-0.2-0.4-0.5-0.7-0.9-0.9l0,0c-0.8-0.3-1.6-0.5-2.4-0.6c-0.5-0.1-1-0.1-1.4-0.1c-0.3,0-0.5,0-0.8,0.1c-0.3,0-0.6,0.2-0.8,0.5
	c-0.1,0.2-0.2,0.4-0.1,0.6l0.1,0.4c0.1,0.2,0.2,0.5,0.3,0.7c0.4,1,0.9,1.9,1.6,2.8c0.3,0.5,0.6,1.1,0.9,1.6c0.2,0.5,0.4,1,0.7,1.4
	c0.4,0.8,0.8,1.6,1.3,2.4c0.1,0.2,0.3,0.4,0.4,0.6s0.3,0.4,0.5,0.7c0.3,0.5,0.7,1.1,1.1,1.5c0.4,0.5,0.7,1.1,1,1.7
	c0.4,0.8,0.8,1.6,1.3,2.3s1,1.5,1.4,2.3c0.1,0.2,0.2,0.4,0.2,0.6c0,0.1,0,0.1-0.1,0.2c0,0-0.1,0-0.1,0c-0.1,0-0.2-0.1-0.3-0.2
	c-0.4-0.3-0.7-0.6-1-0.9c-1.2-1.3-2.4-2.8-3.3-4.4c-0.5-0.7-1-1.4-1.5-2.1c-0.3-0.4-0.6-0.9-0.9-1.3c-0.1-0.2-0.3-0.4-0.4-0.6
	c-0.2-0.2-0.3-0.4-0.5-0.5c-0.7-0.7-1.5-1.3-2.3-1.8c-0.4-0.2-0.9-0.4-1.3-0.5c-0.4-0.2-0.8-0.3-1.2-0.3c-0.2-0.1-0.4-0.1-0.6,0
	c-0.2,0.1-0.3,0.3-0.3,0.5c0,0.2,0,0.4,0,0.6c0.1,0.5,0.3,1,0.5,1.4c0.3,0.8,0.5,1.4,0.8,2.1c0,0.1,0,0.2,0,0.3c0,0.1,0,0.3,0,0.4
	c0.2,0.5,0.5,1,0.8,1.5l0.7,1.2c0.2,0.4,0.5,0.8,0.8,1.2c0.2,0.2,0.4,0.4,0.6,0.7c0.4,0.5,0.8,0.9,1.2,1.4l2.3,2.2l2.3,2.3
	c0.1,0.1,0.2,0.2,0.4,0.3c0.2,0.1,0.3,0.2,0.4,0.3l0.4,0.5c0.2,0.3,0.5,0.5,0.8,0.5c0.2,0,0.4,0.1,0.5,0.2l0.2,0.1c0-0.4,0-0.7,0-1
	c0-0.1-0.1-0.2-0.1-0.2L39,45.8c-0.5-0.6-1-1.1-1.6-1.6c-0.5-0.4-1-0.9-1.5-1.4l-1.3-1.5c-0.1-0.1-0.3-0.3-0.4-0.4
	c-0.4-0.3-0.8-0.7-1.2-1l-0.3-0.3c-0.1-0.1-0.1-0.1-0.2-0.2c-0.2-0.2-0.3-0.5-0.5-0.7l-0.3-0.5L31.6,38c0-0.1,0-0.1-0.1-0.1
	c-0.1-0.1-0.2-0.2-0.2-0.4c-0.1-0.2-0.2-0.3-0.3-0.5c-0.2-0.3-0.3-0.6-0.4-0.8c0,0,0,0,0-0.1c0-0.2,0-0.3,0-0.5c0-0.1,0-0.2,0.1-0.2
	c0.1-0.1,0.1-0.1,0.2-0.1c0.4-0.2,0.9,0.1,1.4,0.4c0.3,0.2,0.5,0.4,0.6,0.7c0.1,0.1,0.1,0.3,0.2,0.4l0.2,0.3l0.3,0.5
	c0.6,0.8,1.2,1.7,1.8,2.5c0.2,0.3,0.4,0.5,0.7,0.8c0.7,0.7,1.4,1.4,2,2.2c0.5,0.6,1.1,1.2,1.7,1.8l0.2,0.1c0.1,0.1,0.2,0.1,0.2,0.2
	c0.1,0.1,0.3,0.1,0.4,0.2c0.2,0.1,0.3,0.1,0.5,0.1h0.2c0.1,0,0.2,0,0.3,0c0.1,0,0.2,0,0.4-0.1c0.2-0.1,0.3-0.2,0.5-0.3
	c0.2-0.2,0.4-0.5,0.5-0.8c0-0.2,0.1-0.4,0.1-0.5c0-0.1,0-0.2,0-0.3v-0.2c0-0.1-0.1-0.2-0.1-0.3c-0.2-0.4-0.4-0.8-0.6-1.2l-1-1.7
	c-0.5-0.8-0.8-1.6-1.3-2.4c-0.5-1-1.1-1.9-1.7-2.8c-0.1-0.2-0.3-0.3-0.4-0.5c-0.1-0.2-0.4-0.4-0.6-0.4L36,31.3
	c-0.1-0.1-0.1-0.2-0.2-0.3c-0.2-0.5-0.4-1-0.7-1.4c-0.4-0.8-0.9-1.5-1.4-2.3s-0.7-1.2-1-1.9c-0.1-0.2-0.2-0.5-0.3-0.7l-0.1-0.3v-0.1
	c-0.1,0,0.2-0.1-0.5,0c-0.1,0-0.2,0-0.2,0c-0.1,0,0,0,0,0s0,0,0.1,0.1c0,0,0.1,0.1,0.1,0.2c0,0.1,0,0.1,0.1,0.2l0,0.1l0,0
	c0.4-0.1,0.7-0.1,1.1,0c0.4,0.1,0.9,0.2,1.3,0.3l0.6,0.2l0.4,0.2c0.1,0,0.2,0.1,0.2,0.2c0.1,0.1,0.2,0.1,0.3,0.2
	c0.2,0.2,0.4,0.4,0.6,0.7c0.2,0.3,0.4,0.7,0.5,1c0.2,0.5,0.4,0.9,0.7,1.3l0.3,0.3c0.4,0.5,0.8,1.1,1.1,1.7c0.4,0.7,0.8,1.3,1.1,2
	c0.3,0.5,0.5,1,0.7,1.5c0.3,0.8,0.7,1.5,1.2,2.2c0.5,0.6,0.9,1.2,1.2,1.8c0.2,0.4,0.5,0.7,0.8,1.1c0.5,0.7,1.2,1.3,2,1.8
	c0.3,0.1,0.6,0.2,0.9,0.2c0.4,0,0.7-0.1,1-0.4l0.4-0.3l-0.2-0.5c-0.1-0.3-0.2-0.6-0.3-0.9c-0.1-0.5-0.3-1.1-0.6-1.6L46.8,37v-0.1
	c-0.1-0.3-0.1-0.7-0.2-1c-0.2-0.8-0.5-1.5-0.7-2.3c-0.5-1.6-1-3.2-1.7-4.8c-0.1-0.3-0.3-0.5-0.4-0.7c-0.3-0.3-0.6-0.7-0.7-1.2
	c-0.3-0.6-0.6-1.2-1-1.8c-0.1-0.2-0.2-0.4-0.2-0.6c0-0.1,0-0.1,0.3-0.2c0,0,0.1,0,0.1,0h0.2c0.5,0.2,0.9,0.5,1.3,0.9
	c1,1.1,1.9,2.3,2.7,3.6c0.7,1.1,1.4,2.2,2,3.3c0.2,0.3,0.3,0.7,0.5,1c0.1,0.2,0.1,0.3,0.2,0.5s0.1,0.3,0.2,0.5
	c0.1,0.3,0.3,0.7,0.4,1c0.4,0.9,0.9,1.8,1.5,2.6c0.2,0.2,0.3,0.5,0.5,0.7c0.2,0.4,0.5,0.7,0.8,0.9c0.3,0.1,0.7,0.3,1,0.5
	c0.2,0.1,0.4,0.2,0.6,0.2c0.3,0.1,0.6,0.1,0.9,0c0.3-0.1,0.5-0.4,0.6-0.7c0.1-0.2,0.1-0.5,0.1-0.8c-0.1-1.2-0.3-2.3-0.6-3.4
	c-0.2-0.9-0.5-1.8-0.7-2.7c0-0.2,0-0.5,0-0.7c0-0.2,0-0.4,0-0.5c0-0.2-0.1-0.4-0.2-0.6l-0.2-0.7c-0.1-0.6-0.1-1.3-0.2-1.9
	c0-0.8-0.2-1.5-0.3-2.2c-0.1-0.4-0.2-0.8-0.2-1.2l0,0l0,0c0.3,0,0.5,0,0.8,0.2c0.4,0.5,0.8,1,1,1.6c0.1,0.2,0.2,0.4,0.2,0.5
	c0.3,0.5,0.5,1,0.8,1.5s0.5,1.3,0.7,1.9c0.3,0.9,0.6,1.7,0.8,2.6l0.4,1.4l0.6,2.1v0.2c0.2,1.1,0.4,2.2,0.8,3.2
	c0.5,1.3,1.1,2.6,1.8,3.9c0.7,1.3,1.7,2.6,2.4,4.1c0.4,1,0.7,2,1,3c0.1,0.3,0.2,0.7,0.3,1c0.3,0.9,0.6,1.9,0.8,2.8
	c0.3,1.5,0.5,2.9,0.7,4.4v0.4v0.3l0.3,0.4c0.6,0.7,0.6,0.2,1.2,0.9s0.9,1,1.6,1.9c0.5,0.5,1,0.9,1.5,1.5c0.2,0.2,0.5,0.4,0.7,0.4
	c0.2,0,0.4,1,0.6,1.2c0,0,0.1,0,0.1,0.1l0.2,0.2c0.1,0.2,0.4,0.4,0.5,0.6c0-0.2,0.8,0.4,0.8,0.2s0.1-0.1,0.1-0.2v-0.1l0,0
	c0-0.1-1-1.2-1-1.3S72.4,64.5,72.3,64.2z"/>
<path class="st3" d="M40.3,48c0.2,0.2,0.5,0.4,0.6,0.6l0.8,1.2c0.2,0.3,0.5,1.1,0.7,1.4l0.4,0.6c0.2,0.3,0.4,0.6,0.5,0.9
	c0.2,0.3,0.2,0.7,0.1,1.1c0,0.1-0.1,0.2-0.1,0.2v0.1c0,0.1,0,0,0,0.1s0,0.1-0.1,0.1c-0.1,0.1-0.3,0.2-0.5,0.2
	c-0.2,0.1-0.5,0.1-0.8,0.1c-0.2,0-0.5,0-0.8,0c-0.1,0-0.3-0.1-0.3-0.2c-0.1-0.2-0.2-0.3-0.3-0.5s-0.2-0.2,0-0.4s0.2-0.3,0.4-0.3
	l0.5-0.1c0.2,0,0.1-0.1,0.2-0.1s0-0.2-0.1-0.2l0,0c0,0,0,0,0-0.1l-0.2-0.4c-0.1-0.2-0.3-0.5-0.4-0.7c-0.3-0.5-0.7-1-1.1-1.5
	c-0.1-0.1-0.2-0.2-0.3-0.3l-0.1-0.1c-0.2-0.3-0.4-0.5-0.5-0.8c-0.3-0.5-0.7-0.9-1.2-1.3v-0.1c-0.3-0.3-0.5-0.7-0.7-1
	c-0.1-0.1-0.1-0.2-0.2-0.3c-0.6-0.7-1.1-1.3-1.7-2c-0.4-0.4-0.8-0.8-1.2-1.2c-0.2-0.2-0.4-0.5-0.6-0.7c0.1-0.4,0.2-0.7,0.7-0.7
	c0.2,0.1,0.4,0.2,0.6,0.3c0.5,0.3,0.9,0.7,1.3,1.1c0.2,0.2,0.3,0.3,0.5,0.5c0.1,0.1,0.3,0.3,0.4,0.4c0.5,0.5,0.9,1.1,1.4,1.7
	c0.3,0.3,0.5,0.7,0.7,1l0.2,0.3L40.3,48z"/>
<g id="Group-4">
	<g id="Group-2">
		<g id="Group-2-2">
			<g id="Group-6">
				<g id="Fill-4">
					<path class="st2" d="M26.1,18.7c0-0.2,0.1-0.3-0.1-0.4c-0.1,0-0.3,0-0.4-0.1c-0.1-0.1-0.3-0.2-0.4-0.3s-0.4-0.2-0.6-0.4
						c-0.1,0-0.1-0.1-0.2-0.2c-0.1-0.1-0.2-0.2-0.4-0.3c-0.1-0.1-0.1-0.1-0.1-0.2c-0.2-0.3-0.4-0.7-0.6-0.9
						c-0.2-0.2-0.3-0.4-0.4-0.7c-0.1-0.2-0.2-0.4-0.3-0.6c-0.2-0.3-0.5-0.6-0.6-0.9c0,0,0-0.1,0-0.1c0.1-0.3-0.2-0.6-0.3-0.9
						c0-0.1-0.1-0.3-0.1-0.4c-0.1,0.3,0,0.6-0.3,0.7c0,0.1,0,0.2,0,0.3c-0.1,0.1-0.2,0.3-0.3,0.4c0,0,0,0.1,0,0.1s0,0.2-0.1,0.2
						c-0.3,0.1-0.1,0.4-0.3,0.5c0.1,0.3-0.1,0.3-0.3,0.3c0.1,0.2,0,0.3-0.1,0.4c0,0-0.1,0.1-0.1,0.1c-0.1,0.2-0.2,0.3-0.4,0.3
						c0,0-0.1,0.1-0.1,0.1s0,0.1,0,0.1c-0.1,0.2-0.3,0.4-0.5,0.6c-0.2,0.1-0.3,0.3-0.5,0.4c0,0-0.1,0.1-0.1,0.1
						c-0.1,0.1-0.2,0.2-0.3,0.4c-0.2,0.1-0.3,0.3-0.5,0.4c-0.1,0.1-0.2,0.2-0.4,0.3c-0.4,0.1-0.6,0.5-1,0.6l-0.1,0.1l0.6,0.2
						c0.2,0.1,0.4,0.2,0.6,0.3s0.4,0.3,0.6,0.5c0,0,0.1,0.1,0.2,0.1c0.1,0,0.2,0,0.2,0.1c0.1,0.2,0.3,0.3,0.5,0.4l0.7,1.1
						c0,0,0,0.1,0.1,0.1c0,0.1,0.1,0.2,0.1,0.3c0.2,0.3,0.3,0.7,0.5,1c0,0.1,0.1,0.2,0.1,0.2c0,0.1,0,0.3,0.1,0.4
						c0.1-0.2,0.3-0.2,0.6-0.1c0.1-0.3,0.2-0.6,0.3-0.9c0.1,0,0.2,0,0.2-0.2h0.2c0-0.1,0-0.2,0-0.3l0,0c0,0,0.1,0.1,0.1,0.1
						c0-0.1,0-0.2,0.1-0.3c0.1,0.1,0.2,0.1,0.2,0s0.2-0.3,0.4-0.4c0-0.1,0-0.2,0-0.3l0.1,0.1c0.1-0.1,0.1-0.1,0.2-0.2
						c0,0,0-0.1,0-0.2l0.1,0.1c0.2-0.1,0.1-0.5,0.4-0.4l0.3-0.4l0.1,0.1l0.6-0.7c0,0.1,0.1,0.2,0.1,0.2h0.1c0-0.1,0-0.2,0-0.4h0.1
						l0.3-0.4l0.1,0.1c0-0.1,0-0.1,0.1-0.2h0.3c0,0.1,0.1,0.1,0.1,0.2c0.2-0.3,0.4-0.5,0.6-0.7L26.1,18.7L26.1,18.7z M11.6,19.2h0.2
						l-0.2-0.3l0.4-0.5l0.7-0.1c0.2,0,0.4,0,0.6,0s0.5-0.1,0.7-0.1c0.2,0,0.4,0,0.5-0.2c0.3,0,0.5-0.1,0.6-0.4l0.1,0.1
						c0.1,0,0.1-0.3,0.2-0.1c0.1-0.1,0.2-0.3,0.4-0.5c0.1,0.2,0.2,0.2,0.3,0.1l0.1-0.3l0.2,0.2c0.3-0.3,0.5-0.5,0.8-0.8
						c0.1,0,0.1-0.1,0.2-0.1c0.1-0.2,0.2-0.4,0.4-0.5s0.3-0.3,0.5-0.5s0.2-0.3,0.3-0.4s0.1-0.1,0.2-0.1s0.2-0.2,0.2-0.4
						s0.1-0.1,0.1-0.1l0.1-0.1c0.1-0.1,0.1-0.3,0.3-0.4s0.2-0.3,0.3-0.5c0.2-0.4,0.4-0.8,0.5-1.2c0.1-0.2,0.1-0.4,0.2-0.6l0.2-0.4
						c0.1-0.2,0.2-0.5,0.4-0.7c0.1-0.3,0.2-0.7,0.1-1c0-0.5,0-1,0-1.6s0-0.8,0-1.2c0-0.1,0.2-0.2,0.3-0.2h0.4l0.3,0.1
						c0.1-0.1,0.2,0,0.4,0.1c0.2,0.1,0.2,0.4,0.2,0.6c0,0.5,0,0.9,0,1.4c0,0.2,0,0.4,0,0.7c0,0.4-0.1,0.9,0,1.3
						c0,0.2-0.1,0.4,0.1,0.6c-0.1,0.2,0,0.4,0,0.5s-0.1,0.1-0.1,0.2l0.3,0.6c0,0,0,0.1,0,0.1c-0.2,0.2,0.1,0.4,0.1,0.6
						s0,0.2,0.2,0.2c0,0,0.1,0.1,0.1,0.1c0.1,0.2,0.1,0.3,0.2,0.5s0.1,0,0.1,0.1c-0.1,0.2,0,0.4,0.1,0.5c0.1,0,0.1,0.2,0.1,0.2
						s0.1,0.4,0.4,0.4c0,0,0.1,0.2,0.1,0.2s0.1,0.4,0.2,0.4s0.3,0.4,0.4,0.5s0.2,0.5,0.6,0.5c0.2,0,0.3,0.1,0.4,0.2
						c0.1,0.1,0.2,0.1,0.3,0.1c0,0,0.1,0,0.1,0c0.2,0.2,0.5,0.3,0.8,0.4c0.2,0.1,0.5,0.2,0.7,0.1c0.3-0.1,0.5,0,0.8,0
						c0.3,0,0.5,0.1,0.7,0.3c0.1,0.1,0.2,0.2,0.3,0.4c0,0.1,0,0.1,0,0.2h0.2c0,0,0,0.1,0,0.1c-0.1,0.1-0.1,0.1-0.2,0.2
						c-0.1,0.1-0.2,0.1-0.3,0.2c-0.1,0-0.1,0.1-0.2,0.1c0,0-0.1,0-0.1,0c-0.3,0.1-0.6,0.1-0.8,0c0,0-0.1,0-0.1,0l-0.6,0.3l-0.6,0.3
						c-0.1,0.1-0.3,0.2-0.4,0.2c-0.2,0-0.3,0.1-0.5,0.3c-0.2,0.2-0.4,0.3-0.6,0.5l-0.2,0.1c-0.1,0-0.1,0.1-0.2,0.1
						c-0.2,0-0.3,0.2-0.5,0.3s-0.2,0.2-0.4,0.3c0,0.2-0.2,0.3-0.5,0.4s-0.2,0.1-0.2,0.2s-0.3,0.4-0.5,0.4s-0.1,0-0.1,0.1
						c-0.1,0.3-0.3,0.4-0.5,0.5c-0.1,0.2-0.2,0.4-0.3,0.6c-0.1,0.1-0.2,0.2-0.3,0.2c0,0-0.1,0.1-0.1,0.1c0,0.1,0,0.3,0,0.4
						c0,0.1-0.1,0.2-0.2,0.2c-0.1,0.1-0.2,0.2,0,0.3c0,0.1-0.1,0.3-0.1,0.4c0,0.1-0.1,0.2-0.1,0.3c-0.2,0.1-0.1,0.2,0,0.3
						s0.1,0.2-0.1,0.3c0,0-0.1,0.1-0.1,0.1c0,0.4,0,0.8,0,1.2c0,0.3,0,0.5,0,0.8c-0.1,0.2-0.1,0.5,0,0.7c0.1,0.3,0,0.6-0.3,0.7
						c0,0-0.1,0-0.1,0l0,0c0,0.1-0.1,0.2-0.2,0.1s-0.4-0.2-0.5-0.4C20,29.2,20,28.7,20,28.3c0-0.4-0.1-0.8-0.1-1.1
						c0-0.1,0-0.2,0-0.2c0-0.2,0-0.4,0-0.6c0-0.3-0.1-0.5-0.1-0.8c-0.1-0.4-0.3-0.8-0.4-1.2c0-0.1-0.1-0.2-0.1-0.3
						c0-0.1-0.1-0.3-0.2-0.4c-0.1-0.2-0.2-0.4-0.3-0.5c-0.1-0.2-0.2-0.4-0.3-0.7s-0.1-0.2-0.1-0.3s-0.1-0.1-0.1-0.2L18,21.8
						c0-0.1-0.1-0.1-0.1-0.2c-0.1-0.1-0.1-0.2-0.2-0.3c0,0-0.1-0.1-0.2-0.1l-0.3-0.2c-0.1-0.1-0.2-0.2-0.3-0.3
						c-0.2-0.2-0.4-0.3-0.6-0.4c-0.1,0-0.3-0.1-0.4,0c-0.1,0-0.1,0-0.2,0c-0.1-0.1-0.2-0.2-0.3-0.2c0,0,0,0,0,0c-0.2,0-0.3,0-0.5,0
						c-0.2,0-0.4-0.1-0.5-0.1c-0.1,0-0.1,0-0.2,0c-0.2,0.1-0.4,0-0.6,0.1s-0.1-0.1-0.2-0.1c-0.1-0.1-0.3-0.2-0.4-0.1
						c0,0-0.1,0-0.1,0c-0.2-0.1-0.5-0.1-0.8,0c-0.1,0-0.3-0.1-0.3-0.2c0,0,0,0,0,0C11.7,19.4,11.7,19.3,11.6,19.2L11.6,19.2z"/>
					<path class="st3" d="M20.6,30.2c-0.1,0-0.1,0-0.2,0l-0.1,0c-0.2-0.1-0.4-0.2-0.5-0.5c-0.1-0.3-0.2-0.7-0.1-1v-0.3
						c0-0.2,0-0.4-0.1-0.7s0-0.3,0-0.5c0,0,0-0.1,0-0.1c0,0,0-0.1,0-0.1c0-0.1,0-0.2,0-0.3s0-0.2,0-0.4s0-0.1,0-0.2
						c0-0.2,0-0.4-0.1-0.6c-0.1-0.3-0.2-0.6-0.3-0.9c0-0.1-0.1-0.2-0.1-0.3l0,0c0,0,0-0.1,0-0.1c0-0.1,0-0.1-0.1-0.2
						c0-0.1-0.1-0.2-0.2-0.3c-0.1-0.1-0.2-0.3-0.2-0.4c0-0.1,0-0.1-0.1-0.2L18.4,23l-0.1-0.3c0,0,0-0.1-0.1-0.2c0,0,0-0.1,0-0.1
						c0,0,0,0,0-0.1c0,0-0.1-0.1-0.1-0.1l-0.1-0.2c0,0,0-0.1-0.1-0.1l0,0l-0.2-0.3l-0.1-0.1h-0.1l-0.3-0.3L16.9,21l-0.2-0.2
						l-0.1-0.1c-0.1-0.1-0.3-0.2-0.5-0.3h-0.4c-0.1,0-0.2,0-0.3-0.1c0,0,0,0-0.1,0c-0.2,0-0.3,0-0.5,0h-0.1l-0.3,0h-0.2h-0.1l0,0
						c-0.1,0-0.2,0-0.3,0c-0.1,0-0.1,0-0.2,0c-0.1,0.1-0.3,0-0.4-0.1l0,0c-0.1-0.1-0.1-0.1-0.2-0.1c-0.1,0.1-0.2,0.1-0.3,0
						c-0.2-0.1-0.4-0.1-0.6,0h-0.1c-0.2,0.1-0.5-0.1-0.5-0.3c-0.1-0.1-0.1-0.2-0.1-0.4L11.4,19h0.1l0,0l-0.1-0.1l0.2-0.2l0.4-0.4
						l0.1-0.1h0.1l0.6-0.1h0.6h0.3c0.1,0,0.3-0.1,0.4-0.1c0.2,0,0.3,0,0.3-0.1l0.1-0.1l0.1,0c0.1,0,0.1,0,0.2,0
						c0.1,0,0.1-0.1,0.2-0.2l0.1-0.4l0.2,0.2c0,0,0.1,0,0.1,0l0,0l0.3-0.3l0.2-0.3L16,17l0.1-0.4l0.2,0.2h0.1l0.7-0.7l0,0l0,0l0,0
						c0,0,0.1,0,0.1-0.1s0.1-0.1,0.2-0.2c0.1-0.1,0.1-0.2,0.2-0.3c0.1-0.1,0.2-0.2,0.3-0.3c0.1-0.1,0.1-0.1,0.2-0.2
						c0-0.1,0.1-0.1,0.1-0.2l0.1-0.2c0,0,0.1-0.1,0.2-0.1l0,0l0.1-0.2l0.1-0.2c0.1-0.1,0.2-0.1,0.3-0.2l0,0l0,0l0,0l0.1-0.1
						c0.1-0.1,0.2-0.2,0.3-0.3c0-0.1,0.1-0.1,0.1-0.2c0-0.1,0.1-0.2,0.1-0.2c0.2-0.3,0.3-0.7,0.5-1.1c0-0.2,0.1-0.3,0.2-0.5
						c0-0.1,0.1-0.1,0.1-0.2c0.1-0.1,0.1-0.3,0.2-0.4c0.1-0.2,0.2-0.5,0.4-0.7C20.9,10,21,9.7,21,9.4V9.3c0-0.2,0-0.4,0-0.7
						s0-0.6,0-0.9s0-0.5,0-0.8s0-0.3,0-0.4c0-0.1,0.1-0.2,0.2-0.3c0.1-0.1,0.2-0.1,0.4-0.1h0.2h0.2c0.1,0,0.1,0,0.2,0l0,0
						c0.1,0,0.1,0,0.2,0c0.2,0,0.3,0.1,0.4,0.3c0.2,0.2,0.3,0.5,0.3,0.7c0,0.3,0,0.7,0,1c0,0.1,0,0.2,0,0.4s0,0.2,0,0.3
						c0,0.1,0,0.3,0,0.4c0,0.2,0,0.3,0,0.5c0,0.3,0,0.5,0,0.8c0,0.1,0,0.1,0,0.2s0,0.2,0,0.2L23,11l-0.1,0.1c0,0,0,0.1,0,0.2
						c0,0.1,0,0.2,0,0.2c0,0.1,0,0.1-0.1,0.2l0.1,0.3l0.1,0.2c0.1,0.1,0.1,0.2,0,0.3l0,0c0,0,0,0.1,0,0.1c0.1,0.1,0.1,0.2,0.1,0.3
						l0,0c0.1,0,0.2,0.2,0.2,0.3c0,0,0,0.1,0,0.1c0,0.1,0.1,0.2,0.1,0.3l0,0l0.2,0.1v0.2c0,0.2,0,0.2,0,0.3c0.1,0.1,0.1,0.1,0.1,0.2
						v0.1c0,0,0.1,0.1,0.1,0.2c0.1,0.1,0.1,0.1,0.1,0.1l0,0c0.1,0,0.2,0.2,0.2,0.3c0,0,0,0.1,0,0.1l0.1,0.2c0,0.1,0,0.1,0.1,0.2
						c0.1,0.1,0.2,0.2,0.3,0.4c0,0.1,0.1,0.1,0.1,0.2c0.1,0.1,0.2,0.2,0.2,0.3c0.1,0.2,0.1,0.2,0.3,0.2c0.2,0,0.4,0.1,0.6,0.3
						c0,0,0,0,0.1,0h0.1c0.1,0,0.2,0,0.3,0.1c0.1,0.1,0.3,0.2,0.4,0.2l0.2,0.1c0.2,0.1,0.4,0.1,0.6,0.1c0.2,0,0.3,0,0.5,0
						c0.1,0,0.2,0,0.3,0c0.4,0,0.7,0.1,0.9,0.4c0.1,0.1,0.3,0.3,0.5,0.3l0.1,0.1l0,0.1l0,0h0.1l0.1,0.1c0,0,0,0.1,0.1,0.1v0.1
						l-0.1,0.1l-0.1,0.1l-0.1,0.1l0,0C30,18.9,29.9,19,29.8,19c-0.1,0-0.1,0.1-0.2,0.1c0,0-0.1,0-0.1,0c-0.3,0.1-0.6,0.1-0.9,0l0,0
						l-0.4,0.2L28,19.4l-0.3,0.2l-0.3,0.2l-0.1,0C27.2,19.9,27.1,20,27,20c-0.1,0-0.3,0.1-0.4,0.2c-0.1,0.1-0.3,0.3-0.5,0.4L26,20.7
						l-0.2,0.1l0,0c-0.1,0.1-0.2,0.1-0.3,0.2c-0.1,0-0.1,0-0.2,0.1c0,0-0.1,0.1-0.1,0.1l-0.2,0.1l-0.1,0.1c-0.1,0.2-0.3,0.4-0.5,0.5
						h-0.1h0l0,0c0,0.3-0.4,0.6-0.6,0.6c-0.1,0.2-0.3,0.4-0.5,0.5l0,0c0,0,0,0.1,0,0.1c-0.1,0.2-0.1,0.3-0.2,0.5
						c-0.1,0.1-0.2,0.2-0.4,0.3L22.2,24l0,0l0,0v0.1c0,0.1,0,0.2,0,0.3c0,0.1-0.1,0.2-0.2,0.3l0,0h0l0,0.2c0,0.1,0,0.2-0.1,0.4
						c0,0.1-0.1,0.3-0.2,0.4l0,0l0,0c0.1,0.1,0.1,0.2,0.1,0.3c0,0.1-0.1,0.2-0.2,0.2c0,0.1,0,0.3,0,0.4c0,0.2,0,0.5,0,0.7
						c0,0.1,0,0.2,0,0.2c0,0.2,0,0.4,0,0.6c-0.1,0.2-0.1,0.4,0,0.6c0.2,0.4,0,0.8-0.3,1c0,0-0.1,0-0.1,0l0,0c0,0.1-0.1,0.2-0.2,0.2
						L20.6,30.2z M19.4,24.3l0.1,0.3c0.1,0.3,0.2,0.6,0.3,0.9c0.1,0.2,0.1,0.4,0.1,0.6c0,0.1,0,0.1,0,0.2s0,0.3,0,0.4s0,0.2,0,0.2
						c0,0,0,0.1,0,0.1c0,0,0,0.1,0,0.1c0,0.1,0,0.3,0,0.5s0,0.5,0.1,0.7s0,0.2,0,0.4c0,0.3,0,0.6,0.1,0.9c0.1,0.1,0.1,0.2,0.3,0.3
						l0,0l0,0l0,0c0-0.1,0.1-0.1,0.2-0.1c0.3-0.1,0.3-0.3,0.2-0.5c-0.1-0.3-0.1-0.6,0-0.8c0-0.2,0-0.3,0-0.5c0-0.1,0-0.2,0-0.3
						s0-0.5,0-0.7s0-0.3,0-0.5c0-0.1,0.1-0.2,0.2-0.3c-0.1-0.1-0.1-0.2-0.1-0.3c0-0.1,0.1-0.2,0.2-0.2v-0.1l0,0
						c0-0.1,0.1-0.2,0.1-0.3c0,0-0.1-0.1-0.1-0.1c0-0.2,0.1-0.3,0.2-0.4l0,0c0,0,0.1-0.1,0.1-0.1c0-0.1,0-0.1,0-0.2
						c0-0.1,0-0.1,0-0.2l0,0c0-0.1,0.1-0.2,0.2-0.2l0.2-0.1c0.1,0,0.2-0.1,0.2-0.2c0.1-0.1,0.1-0.2,0.2-0.4l0.1-0.2V23h0.1l0.1-0.1
						c0.2-0.1,0.3-0.1,0.3-0.3c0-0.1,0.2-0.2,0.3-0.2c0.1-0.1,0.2-0.1,0.3-0.2c0-0.2,0.1-0.3,0.3-0.4h0.1c0.2-0.1,0.3-0.1,0.3-0.2
						v-0.1l0.1-0.1l0.2-0.1l0.2-0.1l0.1-0.1c0.1-0.1,0.3-0.2,0.4-0.2l0,0l0.1-0.1l0.1,0l0.1-0.1l0.2-0.1c0.1-0.1,0.3-0.2,0.4-0.3
						c0.1-0.2,0.3-0.3,0.5-0.3c0.1,0,0.2-0.1,0.3-0.1l0.1-0.1l0.3-0.2l0.3-0.2L28,19l0.5-0.2c0.1,0,0.2,0,0.2,0l0,0
						c0.2,0.1,0.5,0.1,0.7,0h0.2h0.1h0.1v-0.2c0,0,0-0.1,0-0.1l-0.1-0.1c-0.1-0.1-0.2-0.2-0.2-0.3c-0.1-0.2-0.3-0.2-0.4-0.2l0,0
						c-0.1,0-0.3,0-0.4,0c-0.1,0-0.2,0-0.4,0c-0.3,0-0.6,0-0.9-0.1l-0.2-0.1c-0.2,0-0.4-0.1-0.6-0.3h-0.1c-0.2,0-0.3-0.1-0.4-0.2
						C26,17.1,25.9,17,25.8,17c-0.3,0-0.5-0.2-0.6-0.4c0-0.1-0.1-0.1-0.1-0.2l0,0c-0.1-0.1-0.2-0.2-0.2-0.2
						c-0.1-0.1-0.1-0.2-0.2-0.2c-0.1-0.1-0.2-0.2-0.2-0.4c0-0.1,0-0.1,0-0.1v-0.1l0,0c-0.2,0-0.3-0.2-0.4-0.3L24,14.9l0,0
						c0-0.1-0.1-0.1-0.1-0.2c0,0,0,0,0-0.1c-0.1-0.1-0.2-0.3-0.2-0.5c0,0-0.1-0.1-0.1-0.1c-0.1-0.1-0.1-0.3-0.1-0.4c0,0,0-0.1,0-0.1
						l0,0c0,0-0.1,0-0.1-0.1C23.1,13.4,23,13.2,23,13l0,0v-0.1c-0.1-0.1-0.2-0.3-0.1-0.5l-0.1-0.2l-0.2-0.4l0-0.1l0-0.1l0.1-0.1l0,0
						c0,0,0-0.1,0-0.1c0-0.1,0-0.2,0-0.4c-0.1-0.1-0.1-0.3-0.1-0.5c0,0,0-0.1,0-0.1c0-0.3,0-0.6,0-0.9c0-0.1,0-0.3,0-0.4
						c0-0.1,0-0.2,0-0.4c0-0.1,0-0.2,0-0.3s0-0.2,0-0.3c0-0.4,0-0.7,0-1.1c0-0.2-0.1-0.3-0.2-0.4l-0.1-0.1h-0.1h-0.1h-0.1h-0.1h-0.2
						h-0.2c0,0,0,0-0.1,0c0,0.1,0,0.2,0,0.4s0,0.5,0,0.8s0,0.6,0,0.9s0,0.4,0,0.7v0.1c0,0.3,0,0.7-0.2,1c-0.1,0.2-0.2,0.5-0.3,0.7
						l-0.2,0.4c0,0.1,0,0.1-0.1,0.2c-0.1,0.1-0.1,0.3-0.2,0.4c-0.1,0.4-0.3,0.8-0.5,1.2c0,0.1-0.1,0.1-0.1,0.2
						c0,0.2-0.1,0.3-0.3,0.4c-0.1,0-0.1,0.1-0.1,0.2c0,0.1-0.1,0.1-0.1,0.2c0,0-0.1,0.1-0.1,0.1l0,0h0l0,0l-0.1,0.1
						c0,0.1-0.1,0.1-0.1,0.2l0,0c0,0-0.1,0.1-0.1,0.1l0,0c0,0-0.1,0.1-0.1,0.1c-0.1,0.1-0.1,0.2-0.2,0.2c-0.1,0.1-0.1,0.2-0.2,0.2
						c-0.1,0.1-0.2,0.1-0.2,0.2c-0.1,0.1-0.1,0.2-0.2,0.3l-0.2,0.2c-0.1,0.1-0.1,0.1-0.2,0.2l0,0l-0.8,0.8l-0.1,0.1l-0.1-0.1v0.1
						l0,0c-0.1,0.1-0.2,0.2-0.3,0.2h-0.1l-0.2,0.3l-0.2,0.2v-0.1h-0.1l-0.1,0l0,0c-0.1,0.1-0.1,0.1-0.2,0.1
						c-0.1,0.1-0.2,0.1-0.4,0.1c-0.2,0.1-0.4,0.2-0.6,0.2c-0.1,0-0.3,0-0.4,0h-0.3h-0.6l-0.6,0.1l-0.3,0.3l0.1,0.2l0.2,0.3h-0.4v0.1
						l0,0c0,0.1,0.1,0.1,0.1,0.1h0.1c0.3-0.1,0.5,0,0.8,0.1c0.2-0.1,0.5-0.1,0.6,0.1l0,0l0,0c0.1,0,0.2,0,0.3,0h0.2
						c0.1,0,0.2,0,0.2,0l0.3,0l0.3,0H15c0.1,0,0.2,0,0.3,0c0.2-0.1,0.4,0,0.5,0.1h0.1c0.2,0,0.3,0,0.5,0.1c0.2,0.1,0.4,0.2,0.5,0.4
						l0.1,0.1c0.1,0.1,0.2,0.1,0.2,0.2l0.1,0.1l0.3,0.2l0,0c0.1,0,0.1,0.1,0.1,0.1c0.1,0.1,0.2,0.2,0.2,0.3l0,0
						c0,0.1,0.1,0.1,0.1,0.2l0.1,0.2v0.1c0,0,0,0.1,0,0.1c0,0,0,0.1,0,0.1c0,0.1,0,0.1,0.1,0.1l0.1,0.3l0.1,0.3
						c0,0.1,0.1,0.2,0.1,0.2c0,0.1,0.1,0.2,0.1,0.3c0.1,0.1,0.2,0.3,0.3,0.4l0.1,0.1L19.4,24.3z M15.8,20L15.8,20z M20,24.1v-0.5
						c0-0.1,0-0.1,0-0.2v-0.2c0-0.1,0-0.1-0.1-0.2l0,0c-0.1-0.2-0.2-0.3-0.2-0.5s-0.2-0.3-0.2-0.5c0-0.1-0.1-0.2-0.1-0.3
						c0,0,0-0.1,0-0.1c0,0,0-0.1,0-0.1l-0.6-1c-0.2-0.1-0.4-0.2-0.5-0.5l0,0c-0.1,0-0.3,0-0.4-0.1l0,0l-0.2-0.2
						c-0.1-0.1-0.2-0.2-0.4-0.3c-0.1-0.1-0.3-0.1-0.4-0.2l-0.2-0.1L15.9,19l-0.4-0.1l0.3-0.2l0,0c0,0,0.1-0.1,0.1-0.1l0,0
						c0.2-0.1,0.3-0.1,0.5-0.3c0.2-0.1,0.3-0.2,0.6-0.3c0.1,0,0.1-0.1,0.2-0.1l0.1-0.1l0.2-0.1c0.1-0.1,0.2-0.1,0.3-0.2
						c0.1-0.1,0.1-0.1,0.1-0.2l0.1-0.1l0,0c0,0,0.1-0.1,0.1-0.1l0,0c0.1-0.1,0.2-0.1,0.2-0.2c0.1-0.1,0.2-0.2,0.3-0.2
						c0.1-0.1,0.2-0.2,0.3-0.4l0.1-0.1c0,0,0-0.1,0-0.1l0,0c0-0.1,0.1-0.2,0.2-0.2c0.1,0,0.2-0.1,0.3-0.2c0-0.1,0.1-0.2,0.2-0.2
						c0,0,0.1,0,0.1-0.1c0,0,0,0,0-0.1l-0.2-0.3H20h0.1l0,0l0-0.2l0.2-0.1c0,0,0-0.1,0-0.1c0-0.2,0.1-0.3,0.3-0.4l0,0c0,0,0,0,0-0.1
						l0,0c0-0.1,0-0.1,0-0.2l0,0l0.1-0.1c0.1-0.1,0.1-0.1,0.2-0.2c0,0,0-0.1,0-0.1c0,0,0-0.1,0-0.1V13h0.1c0.1,0,0.1-0.1,0.1-0.3
						c0-0.1,0-0.2,0.1-0.4l0.2-0.5l0.2,0.6c0,0.1,0.1,0.2,0.1,0.4c0,0.1,0.1,0.2,0.1,0.3c0.1,0.2,0.2,0.4,0.2,0.6l0,0
						c0.1,0.2,0.3,0.5,0.5,0.7l0.2,0.2c0.1,0.2,0.2,0.3,0.3,0.5l0.1,0.1l0.1,0.2c0.1,0.2,0.1,0.3,0.2,0.4c0.3,0.3,0.5,0.6,0.6,1
						c0,0,0,0,0,0.1l0.1,0.1l0.1,0.1l0.2,0.2l0,0l0.1,0.1l0.1,0.1l0.1,0.1c0.1,0.1,0.2,0.2,0.3,0.2c0.1,0,0.2,0.1,0.3,0.2
						c0,0,0.1,0.1,0.1,0.1c0.1,0,0.2,0.1,0.4,0.1c0.1,0,0.2,0,0.3,0.1c0.1,0.1,0.1,0.3,0,0.4c0,0,0,0,0,0.1L26,19.1l0-0.3l0,0
						l-0.4,0.5l-0.2,0.2l-0.1-0.3v0l0,0v0.1l-0.1,0.2L25,19.5c-0.1,0.1-0.1,0.1-0.2,0.2l-0.1,0.1v0.3h-0.4V20l-0.1,0.1l-0.3,0.4
						l-0.1,0.2l-0.1-0.1v0.1l-0.2,0.3l-0.2-0.1l0,0l0,0c0,0.1-0.1,0.2-0.2,0.3l0,0v0L23,21.3c-0.1,0.1-0.1,0.1-0.2,0.2l-0.1,0.1l0,0
						v0l-0.1,0c-0.2,0.1-0.3,0.1-0.3,0.3c0,0.1-0.1,0.2-0.2,0.3H22l0,0L22,22.5v0.1h-0.1v0.1l-0.1-0.1h-0.1l-0.1,0.1
						c-0.1,0.1-0.1,0.1-0.2,0.1c-0.1,0.3-0.2,0.5-0.3,0.8l-0.1,0.2l-0.2-0.1c-0.2-0.1-0.3,0-0.3,0L20,24.1z M20.4,23.3h0.2
						c0.1-0.2,0.2-0.4,0.3-0.7l0-0.1h0.2l0,0v-0.2h0.1V22h0.2l0,0l0.1-0.4l0.2,0.2c0.1-0.2,0.2-0.3,0.4-0.4c0-0.1,0-0.1,0-0.2v-0.4
						l0.3,0.3V21v-0.5l0.2,0.2c0-0.1,0.1-0.2,0.2-0.2c0.1,0,0.1,0,0.2,0l0.2-0.3l0.1-0.2l0.1,0.2c0.1-0.1,0.1-0.1,0.2-0.2l0.3-0.4
						l0.2-0.2v-0.1l0.2,0.1l0.2-0.3l0.1-0.1l0,0l0,0h0.1h0.4l0.3-0.3l-0.2-0.1c-0.1,0-0.2-0.1-0.2-0.2c0,0-0.1-0.1-0.1-0.1
						c-0.2,0-0.4-0.1-0.5-0.3l-0.1-0.1l0,0l-0.1,0c-0.1,0-0.1-0.1-0.1-0.1c-0.1-0.1-0.2-0.1-0.2-0.2l-0.1-0.1l0,0h0
						c0-0.1-0.1-0.1-0.1-0.2c-0.1-0.3-0.3-0.6-0.6-0.9c-0.1-0.2-0.2-0.3-0.3-0.5c0-0.1-0.1-0.1-0.1-0.2l-0.1-0.2
						c-0.1-0.1-0.1-0.3-0.2-0.4l-0.1-0.2c-0.2-0.2-0.4-0.5-0.5-0.7l0,0c0-0.1-0.1-0.1-0.1-0.2l0,0c0-0.1,0-0.3-0.1-0.4l-0.1-0.1
						c0,0.1-0.1,0.1-0.1,0.1l0,0c0,0.1,0,0.2-0.1,0.3C21.1,13.9,21,14,21,14.1v0.1c0,0,0-0.1,0-0.1l0,0c0,0.1-0.1,0.3-0.2,0.3l0,0
						c0,0,0,0.1,0,0.1c0,0.1-0.1,0.2-0.1,0.2c0,0.2-0.1,0.4-0.3,0.4c0,0,0,0.1,0,0.1c0,0.1-0.1,0.2-0.3,0.3l0,0
						c-0.1,0.2-0.3,0.4-0.5,0.4c0,0.1,0,0.1,0,0.2c0,0.1-0.1,0.1-0.1,0.2c-0.1,0.2-0.3,0.4-0.4,0.5c-0.1,0.1-0.1,0.1-0.2,0.2
						c-0.1,0.1-0.2,0.2-0.3,0.2l0,0l0,0c0,0,0,0.1-0.1,0.1c-0.1,0.1-0.1,0.2-0.2,0.3c-0.1,0.1-0.2,0.2-0.4,0.3l-0.2,0.1L17.6,18
						c-0.1,0.1-0.2,0.2-0.3,0.2c-0.1,0.1-0.3,0.1-0.4,0.2c-0.1,0.1-0.2,0.1-0.2,0.2l0.2,0.1l0.2,0.1c0.2,0.1,0.3,0.1,0.5,0.2
						c0.2,0.1,0.3,0.2,0.4,0.3c0.1,0.1,0.1,0.1,0.2,0.1l0,0c0.1,0,0.1,0,0.2,0c0.1,0.1,0.2,0.1,0.2,0.2l0,0c0.1,0.1,0.2,0.2,0.3,0.2
						h0.1l0,0.1l0.7,1.1c0,0.1,0.1,0.1,0.1,0.2l0,0v0.1c0,0.1,0,0.1,0.1,0.2l0.2,0.5c0.1,0.2,0.2,0.3,0.2,0.5
						c0.1,0.1,0.1,0.2,0.1,0.3c0,0,0,0,0,0.1C20.4,23.1,20.4,23.2,20.4,23.3L20.4,23.3z M19.5,16L19.5,16z"/>
				</g>
			</g>
			<g id="Fill-7">
				<path class="st2" d="M23.9,56.4c0.2,0,0.2,0,0.2-0.1s0.1-0.1,0.2-0.1s0.2-0.1,0.2-0.2c0.1-0.3-0.1-0.3-0.2-0.5
					c0,0-0.1-0.1-0.1-0.1c0,0-0.1,0-0.1-0.1c-0.1-0.2-0.3-0.3-0.4-0.4c-0.2-0.2-0.2-0.5-0.5-0.6c0,0,0-0.1,0-0.1
					c-0.1-0.4-0.3-0.7-0.5-1c-0.2-0.3-0.3-0.5-0.4-0.8c0,0,0-0.1,0-0.1c-0.1,0.1-0.1,0.2-0.2,0.3s0,0,0,0.1c0.1,0.1,0.1,0.3,0,0.3
					c0,0,0,0,0,0c0,0,0,0,0,0.1c0,0.1,0,0.3,0,0.4c-0.1,0.1-0.2,0.3-0.2,0.4S21.5,54,21.4,54c0,0.1-0.1,0.2-0.1,0.3
					c-0.1,0.2-0.3,0.2-0.3,0.4c0,0,0,0-0.1,0c-0.2,0.2-0.5,0.4-0.7,0.6s-0.3,0.2-0.4,0.3l0.5,0.3c0,0,0,0.1,0,0.1
					c0.1,0.1,0.2,0.3,0.3,0.4c0.1,0,0.2,0.1,0.2,0.1c0,0.1,0,0.1,0,0.1c0,0.1,0.1,0.2,0.1,0.3c0.1,0.2,0.2,0.5,0.3,0.7l0.1,0.1
					c0.1,0.3,0.1,0.6,0.4,0.8c0,0,0.1,0.1,0.1,0c0,0,0.1-0.1,0.1-0.2c0-0.1,0-0.1,0-0.2l0.2,0.1c0-0.2,0.1-0.3,0.2-0.4
					c0.1-0.2,0.2-0.3,0.3-0.4s0.2,0,0.2,0c0.1-0.1,0.2-0.3,0.4-0.3c0.1,0,0.2-0.1,0.2-0.1c0.1-0.2,0.3-0.3,0.5-0.4c0,0,0-0.1,0-0.2
					l0.1,0.1C23.9,56.5,24,56.5,23.9,56.4L23.9,56.4z M15.8,56.3c0.1-0.3,0.3-0.5,0-0.7c0.1-0.1,0.2-0.1,0.3-0.2
					c0.1,0,0.1-0.1,0.3,0s0.3,0,0.4,0h0.4l0.3-0.2c0,0,0.1,0,0.1,0c0,0,0.1,0,0.1,0c0.2-0.1,0.3-0.2,0.5-0.2l0.1-0.1
					c0.1-0.1,0.2-0.1,0.3-0.1c0.1,0,0.1-0.1,0.2-0.2c0.1,0.1,0.2,0,0.3-0.1c0.1,0,0.1-0.1,0.2,0c0,0,0.1,0,0.1,0s0.2-0.3,0.2-0.4
					c0.1,0.1,0.1,0.1,0.2-0.1c0.1-0.2,0.2-0.3,0.3-0.4c0.1-0.1,0.3-0.1,0.3-0.3c0,0,0-0.1,0-0.1c0.1-0.1,0.1-0.2,0.1-0.3
					c0-0.1,0.1-0.1,0.2-0.1s0-0.2,0.1-0.2l0.1-0.4c0-0.2,0.1-0.3,0.1-0.5s0.1-0.5,0.2-0.8c0-0.1,0.1-0.2,0.1-0.4c0-0.1,0-0.2,0-0.3
					c0.1-0.1,0.2-0.2,0.1-0.3s0.1-0.3,0.1-0.4s0-0.3,0-0.5c0-0.2,0-0.4,0.1-0.6c0-0.1,0.1-0.2,0.1-0.2c0,0,0.1,0,0.1,0
					c0.1,0,0.1,0,0.2,0s0.4,0.1,0.4,0.3c0,0,0,0.1,0.1,0.1c0.1,0.1,0.2,0.2,0.1,0.4c0,0.1,0,0.3,0,0.4v0.1v0.5c0,0.2,0,0.4,0,0.5
					s0.1,0.5,0.2,0.8c0,0.2,0.1,0.3,0.1,0.5c0.2,0.2,0.1,0.5,0.4,0.7c0.1,0.1,0.1,0.3,0.1,0.4c0,0.1,0.1,0.1,0.1,0.2
					c0,0.1,0,0.1,0.1,0.2s0,0.1,0.1,0.1s0.1,0,0.1,0.1s0.1,0.3,0.3,0.4c0.1,0.1,0.2,0.2,0.3,0.3c0.2,0.3,0.6,0.5,0.9,0.6
					c0.3,0.1,0.6,0.3,0.9,0.4c0,0,0.1,0.1,0.2,0.1h1c0.2,0,0.5,0,0.7,0c0.1,0,0.2,0.1,0.2,0.2c0.1,0.1,0.1,0.3,0.2,0.4
					c0.1,0.1,0.1,0.1,0,0.2s-0.1,0.1-0.1,0.1s-0.1,0.2-0.2,0.2h-0.3h-0.5h-0.5c-0.3,0-0.7,0-1,0.1c-0.2,0-0.5,0.2-0.6,0.3
					c-0.1,0.1-0.3,0.1-0.4,0.2l-0.5,0.4c-0.2,0.2-0.5,0.4-0.8,0.6c-0.1,0.1-0.2,0.2-0.3,0.3c-0.1,0.1-0.1,0.1-0.2,0.2
					c-0.2,0.2-0.5,0.5-0.6,0.8c-0.1,0.1-0.1,0.2-0.1,0.3c0,0.1,0,0.2-0.1,0.2s0.1,0.2-0.1,0.3s0,0.1,0,0.1c0.1,0.3,0.1,0.3-0.1,0.4
					c0.1,0.3,0.1,0.4,0,0.5c0,0.1,0,0.3,0,0.4c0,0.3,0,0.6,0,0.9c0,0.1,0,0.2-0.1,0.2c-0.2,0.1-0.3,0.1-0.5,0.1
					c-0.1,0-0.2,0-0.2-0.1c-0.2-0.1-0.3-0.3-0.4-0.5C21,62.1,21,61.8,21,61.6c0-0.2,0-0.5,0-0.7s0-0.3,0-0.4c0-0.1,0-0.1,0-0.2
					c-0.1-0.2-0.2-0.4-0.2-0.6c0-0.2-0.1-0.4-0.3-0.5c0,0,0,0,0-0.1c0-0.2,0-0.3,0-0.5c0-0.1,0-0.1,0-0.2c-0.1-0.1-0.1-0.3-0.1-0.4
					c0-0.1,0-0.2-0.1-0.2c-0.1-0.1-0.2-0.3-0.3-0.5c-0.2-0.4-0.6-0.7-1-0.6c-0.1,0-0.3,0-0.4,0l-0.6,0h-0.5c-0.2,0-0.4,0-0.5,0
					c-0.1,0-0.3-0.1-0.4-0.1c-0.1-0.1-0.2-0.1-0.4-0.1C16.1,56.4,16,56.4,15.8,56.3L15.8,56.3z"/>
				<path class="st3" d="M20.4,58.6L20.4,58.6c-0.1-0.2-0.2-0.4-0.1-0.5c0,0,0,0,0-0.1s0-0.1,0-0.1c-0.1-0.1-0.2-0.3-0.3-0.5l0,0
					c-0.1-0.3-0.4-0.5-0.8-0.5h-0.2h-0.2h-0.4h-0.2l0,0h-0.5h-0.1c-0.2,0-0.3,0-0.5,0c-0.2,0-0.3-0.1-0.5-0.2c0,0-0.1,0-0.2-0.1
					h-0.1l0,0L16,56.6h-0.2v-0.2c0-0.1,0.1-0.2,0.1-0.3c0,0,0.1-0.1,0.1-0.2l0,0c0,0,0,0-0.1,0l-0.3-0.2l0.3-0.2l0.1-0.1
					c0.1-0.1,0.2-0.1,0.3-0.2l0,0c0.1-0.1,0.3-0.1,0.4,0h0.1H17c0.1,0,0.2,0,0.3,0l0,0l0.2-0.1c0.1,0,0.2,0,0.3,0l0,0
					c0.1-0.1,0.2-0.1,0.4-0.1h0.1c0,0,0,0,0,0c0.1-0.1,0.2-0.1,0.4-0.1l0,0l0.1-0.1l0.2-0.2l0.1,0.1l0,0l0.1,0l0,0
					c0.1,0,0.2-0.1,0.2-0.1h0.1l0.1-0.2c0,0,0-0.1,0.1-0.1l0.1-0.2l0.1,0.1c0.1-0.2,0.2-0.3,0.4-0.4h0.1c0.1-0.1,0.1-0.1,0.1-0.1
					c0-0.1,0-0.2,0.1-0.3c0-0.1,0.1-0.1,0.1-0.2c0-0.1,0.1-0.2,0.2-0.3v-0.1l0.1-0.5c0-0.1,0-0.1,0-0.2s0-0.2,0.1-0.3
					s0.1-0.4,0.2-0.5c0-0.1,0-0.2,0.1-0.2c0,0,0-0.1,0-0.2c0-0.1,0-0.1,0.1-0.2c0-0.1,0-0.1,0-0.2c0,0,0,0,0-0.1l0,0v0l0.1-0.1v-0.1
					c0-0.1,0-0.3,0.1-0.4v-0.1c0-0.1,0-0.1,0-0.2c0-0.1,0-0.2,0-0.2c0-0.2,0-0.5,0.1-0.7c0,0,0-0.1,0-0.1v-0.1l0.1-0.1h0.3
					c0.1,0,0.2,0,0.3,0l0,0c0,0,0.1,0,0.1,0c0.2,0.1,0.3,0.2,0.4,0.4l0,0c0.2,0,0.4,0,0.5,0.1c0,0.1,0,0.1,0,0.2c0,0,0,0.1,0,0.2
					l0,0v0.2c0,0.2,0,0.3,0,0.5c0,0.1,0,0.1,0,0.2s0,0.2,0,0.3c0,0.3,0.1,0.5,0.2,0.8c0,0,0,0.1,0,0.1c0,0.1,0,0.2,0.1,0.3
					c0.1,0.1,0.1,0.2,0.2,0.3c0,0.1,0.1,0.2,0.2,0.3c0.1,0.1,0.2,0.2,0.2,0.4c0,0,0,0.1,0,0.1c0,0,0,0,0,0.1L24,53c0,0,0,0.1,0,0.1
					c0,0,0,0,0,0.1l0,0c0.1,0,0.2,0.1,0.2,0.2l0,0v0.1c0,0.2,0.1,0.2,0.2,0.2c0.1,0.1,0.2,0.2,0.3,0.3V54c0.2,0.3,0.5,0.5,0.9,0.6
					c0.2,0.1,0.4,0.2,0.6,0.3l0.3,0.1h0l0,0h2c0.2,0,0.3,0.1,0.4,0.3c0.1,0.1,0.1,0.2,0.2,0.3c0.1,0.1,0.1,0.2,0.1,0.2
					c0,0.1-0.1,0.2-0.1,0.2l0,0c0,0.2-0.2,0.3-0.4,0.3h-0.1h-0.2H28h-0.2h-0.4h-0.3h-0.7c-0.2,0-0.4,0.1-0.5,0.3l-0.2,0.1l-0.2,0.1
					l-0.3,0.2L25,57.2l-0.3,0.2c-0.2,0.1-0.3,0.2-0.5,0.4c-0.1,0-0.1,0.1-0.1,0.2l-0.1,0.2c0,0-0.1,0.1-0.1,0.1c0,0,0,0-0.1,0
					l-0.1,0.1c-0.2,0.2-0.4,0.4-0.5,0.6c0,0.1,0,0.1,0,0.2c0,0.1,0,0.3-0.1,0.4c0,0.1,0,0.2-0.1,0.3c0.1,0.3,0.1,0.4-0.1,0.5
					c0.1,0.2,0,0.4-0.1,0.6c0,0,0,0.1,0,0.1c0,0.1,0,0.2,0,0.2c0,0.3,0,0.6,0,0.8c0.1,0.2-0.1,0.4-0.2,0.4h-0.1
					c-0.1,0-0.3,0.1-0.4,0.1L21.8,63c-0.1,0-0.2,0-0.3-0.1c-0.2-0.1-0.3-0.3-0.5-0.5c-0.1-0.2-0.2-0.4-0.1-0.6c0,0,0-0.1,0-0.2
					c0-0.1,0-0.2,0-0.3s0-0.2,0-0.4v-0.4c0,0,0,0,0-0.1c-0.1-0.2-0.2-0.3-0.2-0.5c0,0,0-0.1,0-0.2v-0.1c0-0.2-0.1-0.2-0.2-0.3
					c-0.1-0.1-0.1-0.1-0.1-0.2 M21.2,60.5v0.4c0,0.1,0,0.2,0,0.3s0,0.2,0,0.4c0,0.1,0,0.1,0,0.2c0,0.1,0,0.3,0.1,0.4
					c0.1,0.2,0.2,0.3,0.4,0.4h0.1l0.4-0.1h0.1c-0.1-0.3-0.1-0.7,0-1c0-0.1,0-0.1,0-0.2c0,0,0-0.1,0-0.2V61l0.1,0c0,0,0.1-0.1,0-0.3
					l0-0.1l0.1-0.1l0.1-0.1c0,0,0-0.1,0-0.1c-0.1-0.1,0-0.3,0.1-0.4l0,0c0,0,0,0,0-0.1v-0.2l0.1,0l0,0c0-0.2,0-0.4,0.1-0.5
					c0.2-0.2,0.4-0.5,0.6-0.7l0.1-0.1c0,0,0.1-0.1,0.1-0.1l0.1,0l0,0c0,0,0.1-0.1,0.1-0.1c0.1-0.1,0.1-0.2,0.2-0.2l0.5-0.4l0.2-0.2
					l0.2-0.1c0.1-0.1,0.2-0.2,0.3-0.3l0.2-0.1l0.2-0.1c0.2-0.2,0.5-0.3,0.7-0.3c0.3,0,0.5,0,0.8,0h0.3h0.4H28h0.2h0.1h0.2l0,0
					c0-0.1,0-0.1,0.1-0.2c-0.1-0.1-0.2-0.2-0.2-0.4l0,0h-1.7c-0.1,0-0.2,0-0.2-0.1l0,0l-0.3-0.2c-0.2-0.1-0.3-0.2-0.5-0.2
					c-0.4-0.1-0.7-0.4-1-0.7l0-0.1c-0.1-0.1-0.1-0.1-0.2-0.2C24.2,54.2,24,54,24,53.7l0,0c-0.1,0-0.2-0.1-0.2-0.2l0,0
					c0,0,0-0.1,0-0.1v-0.1v-0.1L23.6,53c0-0.1,0-0.1,0-0.2v-0.1c-0.2-0.1-0.3-0.3-0.4-0.5c0-0.1-0.1-0.2-0.1-0.2
					c-0.1-0.1-0.1-0.3-0.2-0.4c0,0,0-0.1,0-0.1c-0.1-0.3-0.1-0.5-0.2-0.8c0-0.1,0-0.2,0-0.4s0-0.1,0-0.2s0-0.3,0-0.5v-0.2
					c0,0,0-0.1,0-0.1c0-0.1,0-0.2,0-0.3c0-0.1,0-0.2-0.1-0.2l0,0c-0.1-0.1-0.1-0.1-0.1-0.2v-0.1h-0.1l-0.1,0h-0.1l0,0
					c0,0,0,0.1,0,0.1c-0.1,0.1-0.1,0.3-0.1,0.5c0,0.1,0,0.2,0,0.3c0,0,0,0.1,0,0.2c0,0.1,0,0.2-0.1,0.2c0,0.1,0,0.1,0,0.1
					c0,0.1,0,0.3-0.1,0.3l0,0c0,0.1,0,0.2,0,0.3l0,0c0,0.1,0,0.2-0.1,0.2c0,0,0,0.1,0,0.1s0,0.2-0.1,0.2l-0.1,0.5
					c0,0.1,0,0.2-0.1,0.3s0,0.1,0,0.2l-0.1,0.5c0,0.1,0,0.1,0,0.2v0.1h-0.1h0l0,0c0,0.1-0.1,0.3-0.2,0.4c0,0.2-0.2,0.4-0.4,0.5l0,0
					l0,0c-0.1,0.1-0.2,0.2-0.2,0.3c0,0.1-0.1,0.2-0.2,0.3c0,0-0.1,0-0.1,0c0,0.1-0.1,0.2-0.2,0.2l0,0c-0.1,0.1-0.1,0.1-0.2,0.1l0,0
					h-0.1l0,0c-0.1,0.1-0.2,0.1-0.3,0.2l0,0c-0.1,0.1-0.1,0.1-0.2,0.1l0,0c0,0-0.1,0-0.2,0l0,0c0,0-0.1,0.1-0.2,0.1l0,0h-0.2
					c-0.1,0-0.2,0-0.3,0.1l0,0c-0.1,0-0.2,0-0.2,0l0,0l-0.1,0.1l-0.1,0H18h-1c-0.1,0-0.1,0-0.2,0h-0.1c-0.1,0-0.3,0-0.4,0l0,0l0,0
					h-0.1h-0.1c0.1,0.2,0,0.4,0,0.5h0.2h0.1c0.2,0,0.3,0.1,0.4,0.2l0,0c0.1,0,0.1,0.1,0.2,0.1c0.1,0,0.3,0,0.4,0h0.5l0,0h0.2h0.4
					h0.2h0.2c0.5,0,1,0.3,1.2,0.8v0c0.1,0.1,0.1,0.2,0.2,0.3c0.1,0.1,0.1,0.2,0.1,0.3c0,0,0,0.1,0,0.1s0,0.2,0,0.2l0,0
					c0,0.1,0.1,0.2,0.1,0.2l0,0l0,0v0.2c0,0.1,0,0.1,0,0.2c0.1,0.1,0.2,0.3,0.3,0.5c0,0,0,0,0,0.1s0,0.1,0,0.2
					c0,0.1,0.1,0.3,0.1,0.4c0.3,0,0.5,0.2,0.5,0.4C21.6,60.2,21.5,60.4,21.2,60.5L21.2,60.5z M21.9,58.9c-0.1,0-0.2,0-0.2-0.1
					c-0.2-0.1-0.4-0.4-0.4-0.6c0-0.1,0-0.2-0.1-0.2l0-0.1c0,0,0,0,0,0l0,0l-0.1-0.2c-0.1-0.2-0.2-0.4-0.2-0.5c0,0-0.1-0.1-0.1-0.1
					l-0.1-0.1l-0.1-0.1v-0.1c-0.1,0-0.1-0.1-0.2-0.1c-0.1-0.1-0.2-0.2-0.2-0.3l-0.1-0.1l0,0l0,0L19.9,56l-0.3-0.1l-0.3-0.1l0.2-0.2
					l0.2-0.1l0.2-0.1l0.4-0.4l0.3-0.2l0,0c0.1-0.1,0.1-0.2,0.2-0.3l0.1-0.1c0,0,0-0.1,0-0.2c0,0,0-0.1,0-0.2l0-0.1h0.1
					c0,0,0,0,0.1-0.1c0-0.1,0.1-0.2,0.1-0.2l0.1-0.2c0-0.1,0-0.1,0-0.2V53c0-0.1,0-0.2,0-0.2l0,0c0,0,0,0,0,0l0,0l0,0
					c-0.1-0.1-0.1-0.2,0-0.3c0-0.1,0.1-0.1,0.1-0.1l0.1-0.1l0.2-0.3l0.1,0.3c0,0,0.1,0.1,0.1,0.1c0.1,0.3,0.2,0.5,0.3,0.8l0.1,0.2
					c0.2,0.2,0.3,0.5,0.4,0.8c0.2,0.1,0.3,0.2,0.4,0.4c0,0.1,0.1,0.1,0.1,0.2c0.1,0.1,0.3,0.1,0.4,0.2l0.1,0.1l0,0c0,0,0.1,0,0.1,0
					c0.1,0,0.1,0.1,0.2,0.2l0.1,0.1c0.2,0.1,0.3,0.4,0.2,0.6c0,0.2-0.2,0.3-0.3,0.3l0,0h-0.1c-0.1,0.2-0.1,0.3-0.3,0.3l0,0l0,0.2
					l0,0c-0.1,0.1-0.2,0.1-0.2,0.2c-0.1,0.1-0.1,0.1-0.2,0.2c-0.1,0.1-0.2,0.3-0.3,0.3c-0.1,0-0.2,0.1-0.3,0.2
					c-0.1,0.1-0.2,0.1-0.2,0.1l0,0l-0.2,0.4l-0.1,0.1h-0.1c0,0.1,0,0.1,0,0.2v0.3l-0.2-0.1c0,0.1,0,0.1-0.1,0.2v0.1h-0.1L21.9,58.9z
					 M21.5,57.6L21.5,57.6L21.5,57.6L21.5,57.6c0.1,0.2,0.1,0.3,0.1,0.4c0,0.1,0,0.2,0.1,0.2v-0.3l0.2,0.1c0-0.1,0.1-0.2,0.2-0.2
					c0.1-0.2,0.2-0.3,0.2-0.4v-0.1h0.1h0.1l0,0c0.1-0.2,0.3-0.3,0.5-0.3l0,0l0,0c0.1-0.2,0.2-0.3,0.4-0.4h0l0,0l-0.1-0.4l0.4,0.1
					v-0.1h0.2l0,0c0.1-0.2,0.3-0.3,0.4-0.3l0,0c0-0.1,0-0.1-0.1-0.2c0,0-0.1-0.1-0.1-0.1c0,0,0-0.1-0.1-0.1l0,0
					c-0.1,0-0.1,0-0.2-0.1l-0.2-0.2c-0.1-0.1-0.2-0.2-0.2-0.2c-0.1-0.1-0.2-0.2-0.2-0.3c-0.1-0.1-0.1-0.2-0.2-0.2
					c-0.1,0-0.2-0.1-0.2-0.2l0,0c-0.1-0.2-0.2-0.5-0.3-0.7l-0.1-0.2c-0.1-0.1-0.1-0.3-0.2-0.4c0,0.1-0.1,0.1-0.1,0.2v0.1
					c0,0.1,0,0.2,0,0.3c0,0.1-0.1,0.2-0.1,0.2c0,0-0.1,0.1-0.1,0.2c0,0.1-0.2,0.3-0.3,0.3l0,0c0,0.1,0,0.2-0.1,0.3
					c0,0.1-0.1,0.1-0.2,0.2c0,0-0.1,0.1-0.1,0.1c0,0.1-0.1,0.1-0.1,0.2l0,0l-0.3,0.2l-0.5,0.4L20,55.7l0.2,0.1l0,0
					c0.1,0,0.1,0.1,0.1,0.2l0,0l0.1,0.1c0,0.1,0.1,0.2,0.2,0.3h0.1h0.1l0.1,0.1v0.2l0,0c0.1,0.1,0.1,0.1,0.2,0.2l0,0
					c0.1,0.2,0.2,0.4,0.2,0.6L21.5,57.6z M23.9,56.3l0.2,0.1L23.9,56.3z"/>
			</g>
			<g id="Fill-9">
				<path class="st2" d="M65.3,26.3C65.3,26.3,65.3,26.3,65.3,26.3c0.6,0.2,1.1,0.6,1.3,1.1c0.1,0.2,0.2,0.4,0.4,0.5
					c0,0,0,0.1,0,0.1c0,0.1-0.1,0.2,0,0.3s0,0,0,0.1l0.1,0.1c0.1-0.1,0.1-0.1,0.2-0.2c-0.2-0.2,0.1-0.3,0.1-0.5l0.1,0.2l0.2-0.3
					c0,0,0.1,0,0.1-0.2c0-0.1,0-0.1,0-0.2l0.2,0.1c0-0.1,0-0.2,0-0.3l0.2,0.1l0.1-0.4v0.1c0.1-0.1,0.2,0,0.3-0.1
					c0,0,0.1-0.1,0.1-0.1c0.1-0.1,0-0.2-0.1-0.3c-0.2-0.1-0.3-0.3-0.5-0.5c-0.2-0.2-0.3-0.4-0.3-0.6c0-0.1,0-0.2,0-0.3
					c-0.1-0.3-0.2-0.6-0.1-0.9c0-0.1,0-0.2,0-0.3h-0.1c0,0,0,0.1,0,0.1c0,0.1,0,0.1-0.2,0.2c-0.1,0-0.1,0.1-0.2,0.2
					c-0.1,0.2,0,0.4-0.3,0.5c0,0,0,0,0,0s-0.1,0.3-0.2,0.3c-0.1,0.1-0.3,0.2-0.3,0.4c-0.1,0.1-0.2,0.2-0.3,0.2
					C65.8,25.9,65.6,26.2,65.3,26.3L65.3,26.3z M68.5,23.4c0,0.1,0.1,0.1,0.1,0.2c0,0.2,0.1,0.5,0.1,0.7c0,0.1,0,0.1,0,0.2
					c0.1,0.2,0.3,0.4,0.3,0.7c0,0,0,0,0,0.1l0.3,0.1l0,0c0,0.2,0.3,0.3,0.4,0.4c0.1,0.1,0.2,0.1,0.3,0c0.1,0,0.2,0,0.2,0
					c0.2,0,0.4,0.1,0.4,0.3c0,0,0,0.1,0,0.1c0,0,0,0.1,0.1,0.2c0.1,0.2,0,0.4-0.2,0.5c0,0,0,0-0.1,0c-0.2,0.1-0.4,0.2-0.5,0.3
					c-0.2,0.1-0.4,0.2-0.5,0.3c-0.1,0.1-0.2,0.2-0.3,0.2L68.8,28l-0.3,0.4c0,0-0.1,0.1-0.1,0.1c0,0-0.1,0.1-0.1,0.2c0,0,0,0-0.1,0.1
					L68,29.3l-0.3,0.5l-0.1,0.3c0,0.1,0,0.2-0.1,0.3L67.5,31c0,0,0,0.1,0,0.1c0.1,0.1,0.1,0.3,0,0.4c-0.2,0.3-0.2,0.3-0.6,0.2h-0.2
					c0-0.2-0.1-0.3-0.1-0.5c0-0.2,0-0.4-0.1-0.6c0-0.1-0.1-0.2-0.1-0.4s-0.1-0.5-0.1-0.7c0-0.2-0.1-0.4-0.1-0.6
					c-0.2-0.3-0.2-0.6-0.3-0.9c-0.1-0.2-0.2-0.4-0.4-0.5c-0.1-0.1-0.1-0.1-0.2-0.2c0,0,0,0-0.1,0c-0.1-0.1-0.3-0.1-0.4-0.1
					c-0.2,0-0.4-0.1-0.6-0.2c-0.2,0-0.3,0-0.5,0c-0.1,0-0.3-0.1-0.4-0.1c-0.1,0-0.2-0.1-0.2-0.1c0,0,0,0,0-0.1
					c0-0.2,0.1-0.3,0.3-0.4h-0.2l0.1-0.1h0.1c-0.1-0.2,0.1-0.2,0.2-0.2s0.2-0.1,0.3-0.2c0,0,0-0.1,0.1-0.1l0.1,0.1l0.1-0.2
					c0.1,0.1,0.2,0.1,0.3-0.1c0,0,0,0.1,0.1,0.1c0-0.1,0-0.1,0.1-0.2l0.1,0.1c0-0.1,0-0.1,0.1-0.2c0,0,0.1,0,0.2,0s0,0,0-0.1l0.1,0
					c0-0.1,0-0.1,0-0.2l0,0v0.1c0.1,0,0-0.4,0.3-0.2c0-0.1,0-0.2,0.1-0.3l0.2,0v-0.2l0.2,0.1c0-0.1,0.1-0.2,0.1-0.2l0,0
					c0.2,0,0.1-0.2,0.2-0.2c0.2-0.2,0.3-0.4,0.4-0.6c0.1-0.1,0.1-0.3,0.1-0.4c0-0.1,0.1-0.2,0.1-0.3c0-0.1,0-0.1,0.1-0.2
					c0-0.1,0.1-0.2,0.1-0.3s0.1-0.3,0.2-0.5s0.1-0.1,0.1-0.2s0.1-0.4,0.1-0.6c0-0.2,0.2-0.3,0.4-0.3c0.2,0,0.3,0,0.3,0.2
					c0,0.1,0,0.3,0,0.4c0,0.1,0,0.3,0,0.4c0,0.1,0.1,0.3,0.1,0.4v0.1c0,0.1,0,0.2,0,0.3c-0.1,0.2-0.1,0.4,0,0.6
					c0.1,0.1,0,0.2-0.1,0.3L68.5,23.4z"/>
				<path class="st3" d="M67.3,32.1c-0.1,0-0.2,0-0.4-0.1h-0.3v-0.2c0-0.1,0-0.1,0-0.2l-0.1-0.3V31c0-0.1,0-0.2,0-0.3
					c0,0,0-0.1,0-0.1c0-0.1-0.1-0.1-0.1-0.2l0,0c0-0.1,0-0.3,0-0.4c0-0.1,0-0.2,0-0.3c0,0,0-0.1,0-0.1c0-0.2,0-0.3-0.1-0.4
					c-0.1-0.2-0.1-0.4-0.2-0.6c0-0.1-0.1-0.2-0.1-0.4c-0.1-0.1-0.2-0.3-0.2-0.4l-0.1-0.1c0-0.1-0.1-0.1-0.2-0.1l0,0l0,0l-0.1,0
					c-0.1,0-0.1-0.1-0.2-0.1c-0.2,0-0.3,0-0.5-0.1l-0.2,0c-0.1,0-0.1,0-0.2,0h-0.3c-0.1,0-0.3-0.1-0.4-0.1l0,0
					c-0.1,0-0.2-0.1-0.2-0.2l0,0c0,0-0.1-0.1-0.1-0.1l0,0c0-0.1,0-0.2,0.1-0.3h-0.1l0.2-0.3l0.1-0.1l0.1-0.1l0,0
					c0.1-0.1,0.2-0.2,0.4-0.1l0,0v-0.1c0,0,0-0.1,0.1-0.1l0.1-0.2l0.1,0.1l0.1-0.2l0.2,0.1l0.2-0.3l0.1,0.1l0.1-0.1l0.1,0.1
					c0,0,0.1-0.1,0.2-0.1v-0.2L65,25v-0.1h0.1l0.2-0.2v0.1l0,0l0,0v-0.1l0.1-0.2h0.1v-0.4l0.3,0.2v-0.2H66c0-0.1,0-0.1,0.1-0.2l0,0
					c0.1-0.1,0.2-0.2,0.3-0.4c0,0,0-0.1,0.1-0.1c0.1-0.1,0.1-0.2,0.1-0.3c0-0.1,0-0.2,0.1-0.3l0,0c0-0.1,0-0.2,0.1-0.2l0,0
					c0,0,0-0.1,0.1-0.2l0.1-0.1c0-0.1,0.1-0.2,0.1-0.2s0.1-0.2,0.1-0.3c0-0.1,0.1-0.1,0.1-0.1v0c0-0.2,0.1-0.4,0.1-0.6l0,0
					c0.1-0.3,0.3-0.5,0.6-0.5c0.2,0,0.5,0.1,0.5,0.4c0,0.2,0.1,0.3,0.1,0.5c0,0.1,0,0.1,0,0.2c0,0.1,0,0.1,0,0.2
					c0,0.1,0,0.2,0.1,0.2c0,0,0,0.1,0,0.1c0,0,0,0.1,0,0.1v0.1c0,0.1,0,0.2,0,0.3c-0.1,0.1-0.1,0.3,0,0.4c0.1,0.1,0.1,0.3,0,0.4
					c0,0,0,0.1,0,0.1l0,0c0,0.1,0,0.1,0,0.2c0,0.2,0.1,0.4,0.1,0.5c0,0.1,0,0.1,0,0.2c0,0.1,0,0.1,0.1,0.1c0.1,0.2,0.2,0.3,0.2,0.5
					l0.2,0.1c0.1,0,0.1,0.1,0.2,0.2c0,0,0.1,0.1,0.2,0.1c0.1,0,0.1,0.1,0.2,0.1c0,0,0.1,0,0.1,0h0.1h0.1H70l0,0c0.2,0,0.4,0,0.5,0.2
					c0.1,0.1,0.2,0.3,0.2,0.5l0,0c0,0,0,0.1,0,0.1l0,0c0.1,0.1,0.1,0.3,0,0.5c-0.1,0.2-0.2,0.3-0.4,0.3c-0.1,0-0.2,0.1-0.3,0.2
					l-0.2,0.1l-0.2,0.1c-0.1,0-0.2,0.1-0.3,0.1l-0.2,0.1c0,0-0.1,0.1-0.1,0.1l-0.3,0.2l-0.1,0.1l-0.2,0.3l0,0c0,0,0,0,0,0.1l0,0l0,0
					c0,0,0,0.1,0,0.1v0.1l0,0L68.3,29c0,0.1-0.1,0.1-0.1,0.2l-0.1,0.3L67.8,30c0,0,0,0.1,0,0.1v0.1v0.1v0.1l-0.1,0.6l0,0
					c0.1,0.2,0.1,0.4,0,0.6l0,0C67.6,32,67.4,32.1,67.3,32.1z M67,31.6L67,31.6c0.1,0,0.2,0.1,0.3,0.1c0,0,0.1,0,0.1-0.2
					c0-0.1,0-0.2,0-0.2c0-0.1,0-0.2,0-0.2l0.1-0.6c0,0,0-0.1,0-0.1c0,0,0-0.1,0-0.1l0,0V30v-0.1l0,0l0.3-0.5c0-0.1,0.1-0.2,0.1-0.2
					l0.1-0.2c0,0,0.1-0.1,0.1-0.1v-0.1c0,0,0,0,0-0.1l0,0c0,0,0-0.1,0.1-0.1l0.2-0.3l0.1-0.1l0,0l0,0l0.3-0.2l0.1-0.1
					c0.1-0.1,0.1-0.1,0.2-0.2c0.1-0.1,0.2-0.1,0.3-0.2l0.2-0.1L70,27c0.1-0.1,0.2-0.1,0.4-0.2c0.1,0,0.1-0.1,0.2-0.1
					c0,0,0-0.1,0-0.1l0,0c0-0.1-0.1-0.2-0.1-0.2c0,0,0-0.1,0-0.2c0,0-0.1-0.1-0.1,0c-0.1,0-0.1,0-0.2,0l0,0c-0.2,0.1-0.4,0-0.5-0.1
					c0,0-0.1-0.1-0.1-0.1c-0.1-0.1-0.2-0.2-0.3-0.3l-0.2-0.1l0,0c-0.1-0.1-0.1-0.1-0.1-0.2l0,0c0-0.1-0.1-0.3-0.1-0.4
					c-0.1-0.1-0.1-0.2-0.1-0.3v-0.1v-0.1c0,0,0,0,0-0.1s0,0,0,0s-0.1-0.3-0.1-0.5v-0.2c0,0,0-0.1,0-0.1c0,0,0,0,0-0.1l-0.1-0.1
					l0.1-0.1v0l0,0c-0.1-0.2-0.1-0.5,0-0.7c0,0,0-0.1,0-0.1v-0.1l0,0l0,0v-0.1c0-0.1-0.1-0.2-0.1-0.3c0-0.1,0-0.2,0-0.3
					c0,0,0-0.1,0-0.1l0,0c0-0.1,0-0.3,0-0.4l0,0H68c-0.1,0-0.2,0.1-0.2,0.1c0,0,0,0,0,0l0,0c0,0.2-0.1,0.4-0.1,0.6
					c0,0.1-0.1,0.1-0.1,0.2l0,0c0,0.1-0.1,0.2-0.1,0.2c0,0.1-0.1,0.2-0.1,0.3c0,0.1,0,0.1-0.1,0.1l-0.1,0.1l0,0c0,0,0,0.1,0,0.1
					c0,0.1-0.1,0.2-0.1,0.3l0,0c0,0.2-0.1,0.3-0.1,0.5l-0.1,0.1c-0.1,0.2-0.2,0.4-0.4,0.5c0,0.1-0.1,0.2-0.2,0.2l-0.1,0.2L66.2,25
					h-0.1v0h-0.4l0,0l-0.1,0.3l-0.2-0.1c0,0.1-0.1,0.1-0.2,0.1v0.2l-0.2-0.1H65l0,0v0.1l-0.1,0.4l-0.1-0.1L64.6,26l-0.1-0.2
					c0,0-0.1,0-0.1,0l0,0l-0.1,0.2L64.1,26c0,0.1-0.1,0.2-0.2,0.2l0.2,0l-0.3,0.2l0,0.2l-0.2-0.1c0,0-0.1,0.1-0.1,0.2
					c0,0,0.1,0.1,0.1,0.1h0.1c0.1,0,0.2,0.1,0.3,0.1H64c0.1,0,0.3,0,0.4,0l0.2,0.1c0.1,0.1,0.2,0.1,0.4,0.1l0,0
					c0.1,0,0.3,0.1,0.4,0.1h0.1c0.1,0,0.1,0.1,0.2,0.1c0.1,0.1,0.2,0.1,0.2,0.2l0.1,0.1c0.1,0.1,0.2,0.3,0.3,0.5
					c0,0.1,0.1,0.3,0.1,0.4c0,0.2,0.1,0.3,0.2,0.5c0.1,0.2,0.1,0.4,0.1,0.6c0,0,0,0.1,0,0.1v0.3c0,0.1,0,0.2,0.1,0.4
					c0,0,0,0.1,0,0.1c0,0.1,0.1,0.2,0.1,0.2c0,0.1,0,0.2,0,0.4v0.3c0,0.1,0,0.2,0,0.3L67,31.6z M67,23.1L67,23.1z M67.1,28.9
					L67,28.6v-0.1v-0.1l0,0c-0.1-0.1-0.1-0.3-0.1-0.4c-0.1-0.1-0.2-0.3-0.3-0.5v-0.1c-0.2-0.4-0.6-0.8-1.1-0.9
					c-0.1,0-0.1-0.1-0.2-0.1l0,0L65,26.1l0.3-0.1c0.1,0,0.2-0.1,0.3-0.2c0.1-0.1,0.3-0.2,0.4-0.3l0,0c0.1,0,0.1-0.1,0.1-0.1l0,0
					v-0.1c0.1-0.1,0.2-0.3,0.3-0.4l0,0c0,0,0-0.1,0.1-0.1c0,0,0-0.1,0-0.1c0-0.1,0.1-0.2,0.2-0.2l0,0c0.1,0,0.1,0,0.1-0.2
					c0-0.1,0-0.1,0-0.2l0,0c0.1-0.1,0.2-0.2,0.3-0.3c0,0,0-0.1,0-0.1l0,0l0.1-0.1h0.4v0.2c0,0,0,0.1,0,0.1c0,0.1,0,0.2,0,0.2
					c0,0.3,0,0.5,0.1,0.8c0,0.1,0.1,0.3,0.1,0.4c0,0.1,0.1,0.3,0.2,0.4l0.1,0.1c0.1,0.1,0.2,0.3,0.3,0.4l0.1,0.1l0,0
					c0.2,0.1,0.2,0.3,0.2,0.5c0,0.1-0.1,0.2-0.2,0.2c-0.1,0.1-0.2,0.1-0.3,0.1l0,0l-0.1,0.1v0.2l-0.1,0.2l-0.1-0.1l-0.1,0.3l0.1-0.1
					v0.1c0,0-0.1,0.1-0.1,0.1V28l-0.1,0.1l-0.1,0.2l0,0l-0.2,0.1l-0.2,0.1L67.1,28.9z M65.8,26.3c0.5,0.2,0.8,0.6,1.1,1v0.1
					c0.1,0.1,0.2,0.3,0.3,0.4c0,0,0.1,0.1,0.1,0.1l0,0l0,0l0.2-0.1v0l0.1-0.1v-0.1c0,0,0-0.1,0-0.1V27l0.2,0.1v-0.2L68,27l0.1-0.2
					l0.1-0.4l0.2,0.3h0.2l0,0l0,0l0,0l-0.1-0.1c-0.2-0.2-0.3-0.4-0.4-0.6c0,0,0-0.1-0.1-0.1c-0.1-0.2-0.2-0.4-0.2-0.6
					c0-0.1,0-0.2,0-0.2c-0.1-0.2-0.2-0.5-0.2-0.7l0,0l0,0c0,0,0,0.1,0,0.1c0,0.3-0.2,0.5-0.5,0.6l0,0c0,0.1-0.1,0.2-0.2,0.3
					c-0.1,0.1-0.2,0.2-0.2,0.3v0.1l0,0c-0.1,0.1-0.2,0.3-0.4,0.3c-0.1,0-0.2,0.1-0.3,0.2L65.8,26.3z M67,25L67,25z M67.4,24.3
					L67.4,24.3z"/>
			</g>
		</g>
	</g>
</g>
</svg>
