<svg id="Layer_1" data-name="Layer 1" xmlns="http://www.w3.org/2000/svg" viewBox="0 0 100 100"><defs><style>.cls-1{fill:#2a3e45;}</style></defs><path class="cls-1" d="M51.34,47.61c6.23,0,12.46,0,18.7,0a9.48,9.48,0,0,0,2-.44c-.45-.54-.87-1.11-1.37-1.61s-1.12-.93-1.65-1.43c-.81-.75-1-1.84-.13-2.38a2.81,2.81,0,0,1,2.63,0c2.8,2.36,5.44,4.92,8.13,7.42.94.88.63,1.65-.26,2.31-2.07,1.52-4.16,3-6.22,4.51a28.3,28.3,0,0,1-3,2.23c-.43.23-1.21-.18-1.83-.3.12-.6,0-1.41.41-1.76,1.55-1.5,3.23-2.86,4.84-4.28a8.14,8.14,0,0,0,.8-1,3.83,3.83,0,0,0-1.07-.35c-4.17.07-8.33.22-12.5.24-4.5,0-9-.09-13.52-.1-2,0-8.64.14-10.68.08-.68,0-1.84-.39-1.92-.77a2.83,2.83,0,0,1,.69-2.19,3,3,0,0,1,2-.58c3.12-.06,10.78,0,13.9,0Z"/><path class="cls-1" d="M56.88,61.64c-2.9.52-5.8,1.14-8.73,1.54a53.7,53.7,0,0,1-6,.33c-3.44.09-9.92.12-13.36.19-1.14,0-2.4.28-2.5-1.44A2.29,2.29,0,0,1,28.85,60C34,60,42.25,60,47.43,59.88c2.06,0,4.11-.19,6.16-.37.45,0,.85-.47,1.28-.71a9.87,9.87,0,0,0-1.06-1c-.32-.23-.73-.31-1.07-.52-1-.6-1.81-1.43-1.06-2.59s1.92-.91,2.86-.31c1.93,1.24,3.83,2.56,5.64,4,2.06,1.6,2,3.25,0,5s-3.87,3.89-5.83,5.8a3.27,3.27,0,0,1-1.52.86c-.45.08-1.25-.11-1.39-.4a1.81,1.81,0,0,1,.17-1.61C53,66.63,54.49,65.34,55.89,64a19.68,19.68,0,0,0,1.41-1.73Z"/><path class="cls-1" d="M53.68,39.81c-6.78.36-21.13.73-27.91,1.09-1.17.06-5.57-.33-3.22-2.56a3.94,3.94,0,0,1,2.3-.82c7.4-.91,22.48-.33,29.89-1.12-1.41-1.49-5.46-3.75-5.4-6,0-.9.65-1.82,1.73-1,2.45,1.85,8.2,4.46,8,8.16-.09,2-2.21,3.89-3.37,5.39a3.17,3.17,0,0,1-1.33,1.19,1.13,1.13,0,0,1-1.48-.61,1.66,1.66,0,0,1,.31-1.14l1.52-2.68-1-.45A1.14,1.14,0,0,0,53.68,39.81Z"/></svg>